<?xml version="1.0" encoding="utf-8" standalone="no"?>
<!DOCTYPE svg PUBLIC "-//W3C//DTD SVG 1.1//EN"
  "http://www.w3.org/Graphics/SVG/1.1/DTD/svg11.dtd">
<svg xmlns:xlink="http://www.w3.org/1999/xlink" width="936pt" height="288pt" viewBox="0 0 936 288" xmlns="http://www.w3.org/2000/svg" version="1.1">
 <metadata>
  <rdf:RDF xmlns:dc="http://purl.org/dc/elements/1.1/" xmlns:cc="http://creativecommons.org/ns#" xmlns:rdf="http://www.w3.org/1999/02/22-rdf-syntax-ns#">
   <cc:Work>
    <dc:type rdf:resource="http://purl.org/dc/dcmitype/StillImage"/>
    <dc:date>2026-10-02T10:41:31.753281</dc:date>
    <dc:format>image/svg+xml</dc:format>
    <dc:creator>
     <cc:Agent>
      <dc:title>Matplotlib v3.11.2, https://matplotlib.org/</dc:title>
     </cc:Agent>
    </dc:creator>
   </cc:Work>
  </rdf:RDF>
 </metadata>
 <defs>
  <style type="text/css">*{stroke-linejoin: round; stroke-linecap: butt}</style>
 </defs>
 <g id="figure_1">
  <g id="patch_1">
   <path d="M 0 288 
L 936 288 
L 936 0 
L 0 0 
z
" style="fill: #ffffff"/>
  </g>
  <g id="axes_1">
   <g id="patch_2">
    <path d="M 36.548482 231.837393 
L 308.84008 231.837393 
L 308.84008 39.315154 
L 36.548482 39.315154 
z
" style="fill: #ffffff"/>
   </g>
   <g id="patch_3">
    <path d="M 48.925373 231.837393 
L 141.752054 231.837393 
L 141.752054 202.218587 
L 48.925373 202.218587 
z
" clip-path="url(#pa0fa011970)" style="fill: #329e78"/>
   </g>
   <g id="patch_4">
    <path d="M 203.636508 231.837393 
L 296.463189 231.837393 
L 296.463189 157.790378 
L 203.636508 157.790378 
z
" clip-path="url(#pa0fa011970)" style="fill: #329e78"/>
   </g>
   <g id="patch_5">
    <path d="M 48.925373 202.218587 
L 141.752054 202.218587 
L 141.752054 128.171572 
L 48.925373 128.171572 
z
" clip-path="url(#pa0fa011970)" style="fill: #d58b36"/>
   </g>
   <g id="patch_6">
    <path d="M 203.636508 157.790378 
L 296.463189 157.790378 
L 296.463189 128.171572 
L 203.636508 128.171572 
z
" clip-path="url(#pa0fa011970)" style="fill: #d58b36"/>
   </g>
   <g id="patch_7">
    <path d="M 48.925373 128.171572 
L 141.752054 128.171572 
L 141.752054 54.124557 
L 48.925373 54.124557 
z
" clip-path="url(#pa0fa011970)" style="fill: #b1b8c1"/>
   </g>
   <g id="patch_8">
    <path d="M 203.636508 128.171572 
L 296.463189 128.171572 
L 296.463189 54.124557 
L 203.636508 54.124557 
z
" clip-path="url(#pa0fa011970)" style="fill: #b1b8c1"/>
   </g>
   <g id="matplotlib.axis_1">
    <g id="xtick_1">
     <g id="line2d_1">
      <defs>
       <path id="m7e77317806" d="M 0 0 
L 0 3.5 
" style="stroke: #000000; stroke-width: 0.8"/>
      </defs>
      <g>
       <use xlink:href="#m7e77317806" x="95.338714" y="231.837393" style="stroke: #000000; stroke-width: 0.8"/>
      </g>
     </g>
     <g id="text_1">
      <!-- 原缓存 -->
      <g transform="translate(80.338714 247.210831) scale(0.1 -0.1)">
       <defs>
        <path id="MicrosoftYaHei-53d" d="M 1950 3853 
L 3081 3853 
Q 3200 4153 3306 4472 
L 1256 4472 
L 1256 2772 
Q 1256 1322 1088 634 
Q 919 -103 394 -866 
Q 238 -653 44 -434 
Q 475 209 613 834 
Q 756 1428 756 2659 
L 756 4928 
L 6219 4928 
L 6219 4472 
L 3856 4472 
Q 3716 4134 3584 3853 
L 5719 3853 
L 5719 1291 
L 5250 1291 
L 5250 1416 
L 4094 1416 
L 4094 16 
Q 4094 -772 3381 -766 
Q 3163 -766 2594 -753 
Q 2569 -516 2513 -209 
Q 3000 -272 3281 -272 
Q 3594 -272 3594 91 
L 3594 1416 
L 2419 1416 
L 2419 1291 
L 1950 1291 
L 1950 3853 
z
M 2419 1834 
L 5250 1834 
L 5250 2434 
L 2419 2434 
L 2419 1834 
z
M 5250 3434 
L 2419 3434 
L 2419 2841 
L 5250 2841 
L 5250 3434 
z
M 2488 1172 
L 2919 891 
Q 2313 -9 1613 -703 
Q 1450 -566 1206 -397 
Q 1838 184 2488 1172 
z
M 4925 1159 
Q 5738 391 6313 -266 
L 5894 -641 
Q 5294 122 4556 859 
L 4925 1159 
z
" transform="scale(0.015625)"/>
        <path id="MicrosoftYaHei-9d9" d="M 2150 2566 
L 2981 2566 
Q 3006 2819 3016 3091 
L 2275 3091 
L 2275 3478 
L 4784 3478 
Q 5081 3959 5363 4516 
L 5800 4266 
Q 5478 3778 5263 3478 
L 6138 3478 
L 6138 3091 
L 3447 3091 
Q 3441 2822 3416 2566 
L 6238 2566 
L 6238 2178 
L 3369 2178 
Q 3328 1922 3269 1678 
L 5663 1678 
L 5663 1297 
Q 5244 616 4650 128 
Q 5347 -241 6300 -322 
Q 6175 -572 6069 -791 
Q 5006 -641 4259 -156 
Q 3544 -625 2613 -859 
Q 2506 -666 2375 -447 
Q 3231 -250 3881 122 
Q 3409 528 3097 1100 
Q 2741 106 2013 -603 
Q 1938 -459 1744 -197 
Q 2675 713 2928 2178 
L 2150 2178 
L 2150 2566 
z
M 863 1641 
Q 1481 1716 2100 1803 
Q 2081 1609 2075 1359 
Q 1069 1241 350 1122 
L 244 1566 
Q 625 1975 1184 2934 
Q 503 2900 225 2853 
L 138 3284 
Q 606 3922 1138 5284 
L 1625 5134 
Q 1119 4091 663 3303 
Q 1166 3313 1403 3319 
Q 1619 3706 1856 4166 
L 2294 3966 
Q 1538 2622 863 1641 
z
M 2325 4434 
Q 2288 4647 2238 4878 
Q 4194 4928 5994 5109 
L 6081 4659 
Q 4725 4534 2325 4434 
z
M 5156 1291 
L 3416 1291 
Q 3756 734 4263 369 
Q 4794 756 5156 1291 
z
M 181 259 
Q 894 422 2050 691 
Q 2031 553 2031 228 
Q 994 -16 300 -216 
L 181 259 
z
M 3769 4328 
L 4163 4478 
Q 4338 4153 4506 3703 
L 4081 3547 
Q 3963 3916 3769 4328 
z
M 2519 4203 
L 2881 4397 
Q 3088 4116 3306 3722 
L 2906 3503 
Q 2706 3916 2519 4203 
z
" transform="scale(0.015625)"/>
        <path id="MicrosoftYaHei-602" d="M 169 4641 
L 1925 4641 
Q 2053 4991 2163 5359 
L 2675 5228 
Q 2578 4928 2472 4641 
L 6275 4641 
L 6275 4178 
L 2291 4178 
Q 1963 3384 1563 2709 
L 1563 -797 
L 1081 -797 
L 1081 1984 
Q 747 1528 369 1141 
Q 244 1359 69 1591 
Q 1113 2688 1744 4178 
L 169 4178 
L 169 4641 
z
M 1838 1791 
L 3994 1791 
L 3994 2203 
Q 4656 2628 5156 3047 
L 2256 3047 
L 2256 3503 
L 5869 3503 
L 5869 2997 
Q 5231 2491 4475 1978 
L 4475 1791 
L 6319 1791 
L 6319 1334 
L 4475 1334 
L 4475 -72 
Q 4475 -784 3763 -784 
Q 3425 -784 2856 -766 
Q 2825 -528 2775 -259 
Q 3375 -322 3663 -322 
Q 3994 -322 3994 9 
L 3994 1334 
L 1838 1334 
L 1838 1791 
z
" transform="scale(0.015625)"/>
       </defs>
       <use xlink:href="#MicrosoftYaHei-53d"/>
       <use xlink:href="#MicrosoftYaHei-9d9" transform="translate(100 0)"/>
       <use xlink:href="#MicrosoftYaHei-602" transform="translate(200 0)"/>
      </g>
     </g>
    </g>
    <g id="xtick_2">
     <g id="line2d_2">
      <g>
       <use xlink:href="#m7e77317806" x="250.049849" y="231.837393" style="stroke: #000000; stroke-width: 0.8"/>
      </g>
     </g>
     <g id="text_2">
      <!-- 全文检索 -->
      <g transform="translate(230.049849 247.182706) scale(0.1 -0.1)">
       <defs>
        <path id="MicrosoftYaHei-4b6" d="M 369 -103 
L 2950 -103 
L 2950 984 
L 925 984 
L 925 1441 
L 2950 1441 
L 2950 2403 
L 1156 2403 
L 1156 2859 
L 5269 2859 
L 5269 2403 
L 3469 2403 
L 3469 1441 
L 5500 1441 
L 5500 984 
L 3469 984 
L 3469 -103 
L 6044 -103 
L 6044 -566 
L 369 -566 
L 369 -103 
z
M 3656 5234 
L 3531 5078 
Q 4581 3703 6319 3009 
Q 6125 2734 5988 2509 
Q 4338 3322 3219 4691 
Q 2263 3453 394 2428 
Q 269 2641 81 2897 
Q 2013 3866 3000 5234 
L 3656 5234 
z
" transform="scale(0.015625)"/>
        <path id="MicrosoftYaHei-786" d="M 194 4241 
L 3194 4241 
Q 2878 4841 2700 5116 
L 3181 5341 
Q 3356 5072 3706 4466 
L 3256 4241 
L 6194 4241 
L 6194 3778 
L 5041 3778 
Q 4706 1994 3603 909 
Q 4434 303 6244 -178 
Q 5956 -503 5806 -722 
Q 4044 -113 3203 553 
Q 2359 -103 506 -772 
Q 344 -553 131 -284 
Q 1919 253 2822 913 
Q 1681 2131 1372 3778 
L 194 3778 
L 194 4241 
z
M 4506 3778 
L 1872 3778 
Q 2153 2241 3216 1238 
Q 4231 2181 4506 3778 
z
" transform="scale(0.015625)"/>
        <path id="MicrosoftYaHei-812" d="M 81 1378 
Q 675 2328 988 3597 
L 144 3597 
L 144 4009 
L 1044 4009 
L 1044 5266 
L 1481 5266 
L 1481 4009 
L 2319 4009 
L 2319 3597 
L 1481 3597 
L 1481 2672 
L 1756 2872 
Q 2094 2459 2350 2097 
L 2006 1828 
Q 1788 2197 1481 2597 
L 1481 -841 
L 1044 -841 
L 1044 2647 
Q 725 1534 281 828 
Q 206 1103 81 1378 
z
M 2163 -122 
L 4544 -122 
Q 4881 791 5244 2203 
L 5750 2059 
Q 5331 741 5013 -122 
L 6188 -122 
L 6188 -566 
L 2163 -566 
L 2163 -122 
z
M 4538 5216 
L 4456 5091 
Q 5119 3891 6344 3166 
Q 6175 2978 6000 2741 
Q 4781 3603 4181 4672 
Q 3438 3466 2475 2666 
Q 2325 2866 2119 3059 
Q 3281 3941 3944 5216 
L 4538 5216 
z
M 2900 2972 
L 5463 2972 
L 5463 2534 
L 2900 2534 
L 2900 2972 
z
M 3656 2197 
L 4094 2303 
Q 4338 1441 4500 578 
L 4031 459 
Q 3875 1441 3656 2197 
z
M 2469 1947 
L 2900 2072 
Q 3138 1378 3388 378 
L 2925 241 
Q 2719 1172 2469 1947 
z
" transform="scale(0.015625)"/>
        <path id="MicrosoftYaHei-9ab" d="M 4431 2197 
Q 5281 1559 5956 966 
L 5588 622 
Q 5391 816 5178 1009 
Q 4331 978 3531 941 
L 3531 3 
Q 3531 -766 2713 -766 
Q 2344 -766 1925 -753 
Q 1894 -528 1838 -253 
Q 2288 -303 2619 -303 
Q 3044 -303 3044 109 
L 3044 913 
Q 2413 881 1813 841 
Q 1450 816 1088 759 
L 900 1253 
Q 1325 1341 1750 1541 
Q 2350 1831 2884 2131 
Q 2381 2097 1919 2059 
Q 1625 2028 1400 1984 
L 1244 2409 
Q 1513 2509 1769 2672 
Q 2175 2934 2619 3297 
L 806 3297 
L 806 2578 
L 319 2578 
L 319 3722 
L 2944 3722 
L 2944 4303 
L 500 4303 
L 500 4728 
L 2944 4728 
L 2944 5341 
L 3456 5341 
L 3456 4728 
L 5925 4728 
L 5925 4303 
L 3456 4303 
L 3456 3722 
L 6081 3722 
L 6081 2578 
L 5594 2578 
L 5594 3297 
L 3231 3297 
Q 2584 2791 2000 2416 
Q 2731 2447 3459 2472 
Q 3891 2738 4269 3009 
L 4650 2716 
Q 3244 1866 1988 1253 
Q 3313 1309 4747 1388 
Q 4441 1650 4106 1916 
L 4431 2197 
z
M 4356 678 
Q 5425 203 6294 -266 
Q 6113 -503 6000 -697 
Q 5181 -191 4094 322 
L 4356 678 
z
M 1838 728 
L 2131 372 
Q 1294 -228 394 -684 
Q 275 -491 88 -278 
Q 1031 141 1838 728 
z
" transform="scale(0.015625)"/>
       </defs>
       <use xlink:href="#MicrosoftYaHei-4b6"/>
       <use xlink:href="#MicrosoftYaHei-786" transform="translate(100 0)"/>
       <use xlink:href="#MicrosoftYaHei-812" transform="translate(200 0)"/>
       <use xlink:href="#MicrosoftYaHei-9ab" transform="translate(300 0)"/>
      </g>
     </g>
    </g>
   </g>
   <g id="matplotlib.axis_2">
    <g id="ytick_1">
     <g id="line2d_3">
      <defs>
       <path id="m67336da601" d="M 0 0 
L -3.5 0 
" style="stroke: #000000; stroke-width: 0.8"/>
      </defs>
      <g>
       <use xlink:href="#m67336da601" x="36.548482" y="231.837393" style="stroke: #000000; stroke-width: 0.8"/>
      </g>
     </g>
     <g id="text_3">
      <!-- 0 -->
      <g transform="translate(23.68442 235.897452) scale(0.1 -0.1)">
       <defs>
        <path id="MicrosoftYaHei-16" d="M 284 2325 
Q 284 3606 709 4264 
Q 1134 4922 1941 4922 
Q 3478 4922 3478 2441 
Q 3478 1216 3045 567 
Q 2613 -81 1831 -81 
Q 1094 -81 689 534 
Q 284 1150 284 2325 
z
M 909 2353 
Q 909 425 1888 425 
Q 2850 425 2850 2384 
Q 2850 4413 1906 4413 
Q 909 4413 909 2353 
z
" transform="scale(0.015625)"/>
       </defs>
       <use xlink:href="#MicrosoftYaHei-16"/>
      </g>
     </g>
    </g>
    <g id="ytick_2">
     <g id="line2d_4">
      <g>
       <use xlink:href="#m67336da601" x="36.548482" y="202.218587" style="stroke: #000000; stroke-width: 0.8"/>
      </g>
     </g>
     <g id="text_4">
      <!-- 2 -->
      <g transform="translate(23.68442 206.278646) scale(0.1 -0.1)">
       <defs>
        <path id="MicrosoftYaHei-18" d="M 2666 3572 
Q 2666 3963 2419 4186 
Q 2172 4409 1747 4409 
Q 1447 4409 1140 4256 
Q 834 4103 569 3819 
L 569 4413 
Q 806 4659 1107 4790 
Q 1409 4922 1816 4922 
Q 2472 4922 2872 4570 
Q 3272 4219 3272 3619 
Q 3272 3084 3026 2693 
Q 2781 2303 2188 1894 
Q 1581 1475 1376 1294 
Q 1172 1113 1090 947 
Q 1009 781 1009 544 
L 3416 544 
L 3416 0 
L 372 0 
L 372 241 
Q 372 659 486 951 
Q 600 1244 862 1520 
Q 1125 1797 1681 2184 
Q 2250 2584 2458 2886 
Q 2666 3188 2666 3572 
z
" transform="scale(0.015625)"/>
       </defs>
       <use xlink:href="#MicrosoftYaHei-18"/>
      </g>
     </g>
    </g>
    <g id="ytick_3">
     <g id="line2d_5">
      <g>
       <use xlink:href="#m67336da601" x="36.548482" y="172.599781" style="stroke: #000000; stroke-width: 0.8"/>
      </g>
     </g>
     <g id="text_5">
      <!-- 4 -->
      <g transform="translate(23.68442 176.65984) scale(0.1 -0.1)">
       <defs>
        <path id="MicrosoftYaHei-1a" d="M 2906 4841 
L 2906 1644 
L 3631 1644 
L 3631 1138 
L 2906 1138 
L 2906 0 
L 2313 0 
L 2313 1138 
L 53 1138 
L 53 1616 
Q 656 2294 1265 3178 
Q 1875 4063 2272 4841 
L 2906 4841 
z
M 741 1644 
L 2313 1644 
L 2313 3950 
Q 1988 3366 1616 2817 
Q 1244 2269 741 1644 
z
" transform="scale(0.015625)"/>
       </defs>
       <use xlink:href="#MicrosoftYaHei-1a"/>
      </g>
     </g>
    </g>
    <g id="ytick_4">
     <g id="line2d_6">
      <g>
       <use xlink:href="#m67336da601" x="36.548482" y="142.980975" style="stroke: #000000; stroke-width: 0.8"/>
      </g>
     </g>
     <g id="text_6">
      <!-- 6 -->
      <g transform="translate(23.68442 147.041033) scale(0.1 -0.1)">
       <defs>
        <path id="MicrosoftYaHei-1c" d="M 3181 4219 
Q 2803 4413 2391 4413 
Q 1763 4413 1381 3866 
Q 1000 3319 994 2372 
L 1009 2372 
Q 1353 3038 2106 3038 
Q 2734 3038 3109 2628 
Q 3484 2219 3484 1541 
Q 3484 831 3051 375 
Q 2619 -81 1947 -81 
Q 1209 -81 789 495 
Q 369 1072 369 2131 
Q 369 3413 920 4167 
Q 1472 4922 2372 4922 
Q 2888 4922 3181 4781 
L 3181 4219 
z
M 1031 1584 
Q 1031 1106 1286 765 
Q 1541 425 1963 425 
Q 2363 425 2613 719 
Q 2863 1013 2863 1475 
Q 2863 1975 2627 2253 
Q 2391 2531 1956 2531 
Q 1544 2531 1287 2250 
Q 1031 1969 1031 1584 
z
" transform="scale(0.015625)"/>
       </defs>
       <use xlink:href="#MicrosoftYaHei-1c"/>
      </g>
     </g>
    </g>
    <g id="ytick_5">
     <g id="line2d_7">
      <g>
       <use xlink:href="#m67336da601" x="36.548482" y="113.362169" style="stroke: #000000; stroke-width: 0.8"/>
      </g>
     </g>
     <g id="text_7">
      <!-- 8 -->
      <g transform="translate(23.68442 117.422227) scale(0.1 -0.1)">
       <defs>
        <path id="MicrosoftYaHei-1e" d="M 306 1350 
Q 306 1769 556 2122 
Q 806 2475 1200 2625 
Q 884 2803 700 3081 
Q 516 3359 516 3684 
Q 516 4028 692 4312 
Q 869 4597 1183 4759 
Q 1497 4922 1875 4922 
Q 2256 4922 2572 4761 
Q 2888 4600 3063 4315 
Q 3238 4031 3238 3684 
Q 3238 3366 3058 3086 
Q 2878 2806 2559 2625 
Q 2953 2472 3200 2119 
Q 3447 1766 3447 1350 
Q 3447 938 3250 611 
Q 3053 284 2690 103 
Q 2328 -78 1875 -78 
Q 1425 -78 1065 103 
Q 706 284 506 612 
Q 306 941 306 1350 
z
M 906 1378 
Q 906 947 1172 687 
Q 1438 428 1878 428 
Q 2309 428 2582 692 
Q 2856 956 2856 1378 
Q 2856 1778 2579 2051 
Q 2303 2325 1878 2325 
Q 1456 2325 1181 2058 
Q 906 1791 906 1378 
z
M 1081 3634 
Q 1081 3309 1312 3076 
Q 1544 2844 1878 2844 
Q 2206 2844 2445 3078 
Q 2684 3313 2684 3634 
Q 2684 3963 2454 4191 
Q 2225 4419 1878 4419 
Q 1534 4419 1307 4195 
Q 1081 3972 1081 3634 
z
" transform="scale(0.015625)"/>
       </defs>
       <use xlink:href="#MicrosoftYaHei-1e"/>
      </g>
     </g>
    </g>
    <g id="ytick_6">
     <g id="line2d_8">
      <g>
       <use xlink:href="#m67336da601" x="36.548482" y="83.743363" style="stroke: #000000; stroke-width: 0.8"/>
      </g>
     </g>
     <g id="text_8">
      <!-- 10 -->
      <g transform="translate(17.820357 87.803421) scale(0.1 -0.1)">
       <defs>
        <path id="MicrosoftYaHei-17" d="M 1781 0 
L 1781 4141 
Q 1638 3997 1295 3819 
Q 953 3641 663 3569 
L 663 4169 
Q 1047 4275 1484 4508 
Q 1922 4741 2156 4947 
L 2388 4947 
L 2388 0 
L 1781 0 
z
" transform="scale(0.015625)"/>
       </defs>
       <use xlink:href="#MicrosoftYaHei-17"/>
       <use xlink:href="#MicrosoftYaHei-16" transform="translate(58.640625 0)"/>
      </g>
     </g>
    </g>
    <g id="ytick_7">
     <g id="line2d_9">
      <g>
       <use xlink:href="#m67336da601" x="36.548482" y="54.124557" style="stroke: #000000; stroke-width: 0.8"/>
      </g>
     </g>
     <g id="text_9">
      <!-- 12 -->
      <g transform="translate(17.820357 58.184615) scale(0.1 -0.1)">
       <use xlink:href="#MicrosoftYaHei-17"/>
       <use xlink:href="#MicrosoftYaHei-18" transform="translate(58.640625 0)"/>
      </g>
     </g>
    </g>
    <g id="text_10">
     <!-- 数量 -->
     <g transform="translate(11.286178 145.576273) rotate(-90) scale(0.1 -0.1)">
      <defs>
       <path id="MicrosoftYaHei-783" d="M 4175 5303 
L 4675 5228 
Q 4544 4622 4369 4097 
L 6281 4097 
L 6281 3672 
L 5888 3672 
Q 5731 1834 5088 753 
Q 5594 66 6375 -372 
Q 6175 -647 6038 -866 
Q 5275 -372 4769 309 
Q 4194 -403 3400 -928 
Q 3263 -747 3044 -534 
Q 3919 41 4463 772 
Q 3956 1647 3794 2791 
Q 3663 2559 3519 2359 
Q 3394 2541 3206 2759 
Q 3931 3803 4175 5303 
z
M 150 1697 
L 1100 1697 
Q 1238 1934 1369 2184 
L 1819 2041 
Q 1719 1866 1619 1697 
L 3150 1697 
L 3150 1291 
Q 2913 678 2431 216 
Q 2775 53 3131 -109 
L 2856 -541 
Q 2469 -322 2050 -103 
Q 1344 -609 269 -903 
Q 169 -703 56 -466 
Q 969 -259 1600 128 
Q 1063 403 475 691 
Q 675 978 863 1284 
L 150 1284 
L 150 1697 
z
M 219 3847 
L 1656 3847 
L 1656 5247 
L 2119 5247 
L 2119 3847 
L 3319 3847 
L 3319 3434 
L 2119 3434 
L 2119 3053 
L 2306 3266 
Q 2888 2841 3281 2516 
L 2981 2166 
Q 2638 2491 2119 2897 
L 2119 2184 
L 1656 2184 
L 1656 3059 
Q 1088 2466 331 2016 
Q 213 2197 63 2397 
Q 850 2822 1506 3434 
L 219 3434 
L 219 3847 
z
M 5388 3672 
L 4219 3672 
Q 4188 3591 4150 3516 
Q 4263 2191 4775 1247 
Q 5275 2159 5388 3672 
z
M 1088 834 
Q 1531 634 2000 416 
Q 2431 784 2675 1284 
L 1375 1284 
Q 1231 1053 1088 834 
z
M 3038 5091 
L 3425 4834 
Q 3081 4384 2738 4003 
Q 2594 4128 2400 4266 
Q 2725 4647 3038 5091 
z
M 381 4816 
L 738 5059 
Q 1019 4716 1319 4322 
L 931 4047 
Q 656 4453 381 4816 
z
" transform="scale(0.015625)"/>
       <path id="MicrosoftYaHei-b4f" d="M 113 -278 
L 2981 -278 
L 2981 78 
L 475 78 
L 475 403 
L 2981 403 
L 2981 759 
L 1494 759 
L 1494 597 
L 1069 597 
L 1069 2516 
L 5350 2516 
L 5350 597 
L 4925 597 
L 4925 759 
L 3419 759 
L 3419 403 
L 5931 403 
L 5931 78 
L 3419 78 
L 3419 -278 
L 6288 -278 
L 6288 -616 
L 113 -616 
L 113 -278 
z
M 1119 5072 
L 5306 5072 
L 5306 3284 
L 4881 3284 
L 4881 3453 
L 1544 3453 
L 1544 3284 
L 1119 3284 
L 1119 5072 
z
M 163 3153 
L 6263 3153 
L 6263 2816 
L 163 2816 
L 163 3153 
z
M 1544 3778 
L 4881 3778 
L 4881 4116 
L 1544 4116 
L 1544 3778 
z
M 4881 4747 
L 1544 4747 
L 1544 4416 
L 4881 4416 
L 4881 4747 
z
M 3419 1084 
L 4925 1084 
L 4925 1491 
L 3419 1491 
L 3419 1084 
z
M 1494 1084 
L 2981 1084 
L 2981 1491 
L 1494 1491 
L 1494 1084 
z
M 4925 2191 
L 3419 2191 
L 3419 1791 
L 4925 1791 
L 4925 2191 
z
M 1494 1791 
L 2981 1791 
L 2981 2191 
L 1494 2191 
L 1494 1791 
z
" transform="scale(0.015625)"/>
      </defs>
      <use xlink:href="#MicrosoftYaHei-783"/>
      <use xlink:href="#MicrosoftYaHei-b4f" transform="translate(100 0)"/>
     </g>
    </g>
   </g>
   <g id="patch_9">
    <path d="M 36.548482 231.837393 
L 36.548482 39.315154 
" style="fill: none; stroke: #000000; stroke-width: 0.8; stroke-linejoin: miter; stroke-linecap: square"/>
   </g>
   <g id="patch_10">
    <path d="M 308.84008 231.837393 
L 308.84008 39.315154 
" style="fill: none; stroke: #000000; stroke-width: 0.8; stroke-linejoin: miter; stroke-linecap: square"/>
   </g>
   <g id="patch_11">
    <path d="M 36.548482 231.837393 
L 308.84008 231.837393 
" style="fill: none; stroke: #000000; stroke-width: 0.8; stroke-linejoin: miter; stroke-linecap: square"/>
   </g>
   <g id="patch_12">
    <path d="M 36.548482 39.315154 
L 308.84008 39.315154 
" style="fill: none; stroke: #000000; stroke-width: 0.8; stroke-linejoin: miter; stroke-linecap: square"/>
   </g>
   <g id="text_11">
    <!-- 2 -->
    <g transform="translate(92.113479 220.100256) scale(0.11 -0.11)">
     <use xlink:href="#MicrosoftYaHei-18"/>
    </g>
   </g>
   <g id="text_12">
    <!-- 5 -->
    <g transform="translate(246.824614 197.886151) scale(0.11 -0.11)">
     <defs>
      <path id="MicrosoftYaHei-1b" d="M 3294 1494 
Q 3294 784 2823 350 
Q 2353 -84 1559 -84 
Q 878 -84 544 119 
L 544 744 
Q 1034 425 1544 425 
Q 2050 425 2361 704 
Q 2672 984 2672 1447 
Q 2672 1909 2348 2167 
Q 2025 2425 1434 2425 
Q 978 2425 613 2384 
L 791 4841 
L 3053 4841 
L 3053 4303 
L 1306 4303 
L 1206 2931 
L 1647 2950 
Q 2416 2950 2855 2567 
Q 3294 2184 3294 1494 
z
" transform="scale(0.015625)"/>
     </defs>
     <use xlink:href="#MicrosoftYaHei-1b"/>
    </g>
   </g>
   <g id="text_13">
    <!-- 5 -->
    <g transform="translate(92.113479 168.267345) scale(0.11 -0.11)">
     <use xlink:href="#MicrosoftYaHei-1b"/>
    </g>
   </g>
   <g id="text_14">
    <!-- 2 -->
    <g transform="translate(246.824614 146.053241) scale(0.11 -0.11)">
     <use xlink:href="#MicrosoftYaHei-18"/>
    </g>
   </g>
   <g id="text_15">
    <!-- 5 -->
    <g transform="translate(92.113479 94.22033) scale(0.11 -0.11)">
     <use xlink:href="#MicrosoftYaHei-1b"/>
    </g>
   </g>
   <g id="text_16">
    <!-- 5 -->
    <g transform="translate(246.824614 94.22033) scale(0.11 -0.11)">
     <use xlink:href="#MicrosoftYaHei-1b"/>
    </g>
   </g>
   <g id="text_17">
    <!-- 证据语义支持（12题） -->
    <g transform="translate(111.657406 33.315154) scale(0.12 -0.12)">
     <defs>
      <path id="MicrosoftYaHei-a9a" d="M 1681 -34 
L 2550 -34 
L 2550 3422 
L 3031 3422 
L 3031 -34 
L 4025 -34 
L 4025 4534 
L 2025 4534 
L 2025 4997 
L 6200 4997 
L 6200 4534 
L 4525 4534 
L 4525 2653 
L 5975 2653 
L 5975 2191 
L 4525 2191 
L 4525 -34 
L 6300 -34 
L 6300 -497 
L 1681 -497 
L 1681 -34 
z
M 2050 1534 
Q 2075 1316 2169 991 
Q 1413 241 1025 -203 
L 669 203 
Q 856 466 856 828 
L 856 2784 
L 100 2784 
L 100 3234 
L 1338 3234 
L 1338 797 
Q 1625 1072 2050 1534 
z
M 706 5222 
Q 1438 4478 1731 4147 
L 1294 3778 
Q 900 4291 325 4891 
L 706 5222 
z
" transform="scale(0.015625)"/>
      <path id="MicrosoftYaHei-747" d="M 2900 1334 
L 4188 1334 
L 4188 2128 
L 2731 2128 
Q 2663 206 1844 -841 
Q 1694 -647 1506 -447 
Q 2288 516 2288 2509 
L 2288 4947 
L 5975 4947 
L 5975 3134 
L 5525 3134 
L 5525 3328 
L 2738 3328 
L 2738 2553 
L 4188 2553 
L 4188 3209 
L 4638 3209 
L 4638 2553 
L 6288 2553 
L 6288 2128 
L 4638 2128 
L 4638 1334 
L 5938 1334 
L 5938 -778 
L 5488 -778 
L 5488 -416 
L 3350 -416 
L 3350 -778 
L 2900 -778 
L 2900 1334 
z
M 100 1966 
Q 544 2088 963 2213 
L 963 3641 
L 175 3641 
L 175 4091 
L 963 4091 
L 963 5284 
L 1425 5284 
L 1425 4091 
L 2106 4091 
L 2106 3641 
L 1425 3641 
L 1425 2356 
Q 1722 2450 2006 2547 
Q 2013 2266 2044 2059 
Q 1722 1956 1425 1856 
L 1425 -34 
Q 1425 -741 806 -753 
Q 613 -759 231 -747 
Q 206 -497 156 -228 
Q 500 -266 681 -266 
Q 963 -266 963 53 
L 963 1703 
Q 534 1559 163 1428 
L 100 1966 
z
M 5525 4534 
L 2738 4534 
L 2738 3741 
L 5525 3741 
L 5525 4534 
z
M 5488 922 
L 3350 922 
L 3350 -9 
L 5488 -9 
L 5488 922 
z
" transform="scale(0.015625)"/>
      <path id="MicrosoftYaHei-aa7" d="M 1825 2547 
L 2881 2547 
L 3006 3428 
L 2113 3428 
L 2113 3859 
L 3066 3859 
L 3169 4584 
L 1975 4584 
L 1975 5022 
L 6025 5022 
L 6025 4584 
L 3641 4584 
L 3541 3859 
L 5506 3859 
L 5506 2547 
L 6288 2547 
L 6288 2109 
L 1825 2109 
L 1825 2547 
z
M 2375 1466 
L 5719 1466 
L 5719 -822 
L 5250 -822 
L 5250 -441 
L 2844 -441 
L 2844 -822 
L 2375 -822 
L 2375 1466 
z
M 2094 716 
Q 2113 391 2138 178 
Q 1519 -216 888 -722 
L 594 -303 
Q 806 -103 806 259 
L 806 2716 
L 100 2716 
L 100 3166 
L 1288 3166 
L 1288 147 
Q 1725 441 2094 716 
z
M 5250 1028 
L 2844 1028 
L 2844 -3 
L 5250 -3 
L 5250 1028 
z
M 5038 3428 
L 3481 3428 
L 3363 2547 
L 5038 2547 
L 5038 3428 
z
M 738 5222 
Q 1419 4522 1725 4184 
L 1288 3816 
Q 894 4334 356 4891 
L 738 5222 
z
" transform="scale(0.015625)"/>
      <path id="MicrosoftYaHei-423" d="M 4869 4891 
L 5406 4791 
Q 4991 2394 3603 966 
Q 4563 209 6325 -197 
Q 6056 -516 5888 -741 
Q 4113 -163 3203 594 
Q 2275 -166 444 -816 
Q 306 -584 100 -328 
Q 1938 216 2825 950 
Q 1553 2241 956 4703 
L 1444 4891 
Q 1981 2575 3213 1316 
Q 4588 2750 4869 4891 
z
M 2500 5128 
L 2956 5347 
Q 3431 4547 3750 3859 
L 3263 3597 
Q 2881 4441 2500 5128 
z
" transform="scale(0.015625)"/>
      <path id="MicrosoftYaHei-775" d="M 163 4434 
L 3000 4434 
L 3000 5334 
L 3513 5334 
L 3513 4434 
L 6219 4434 
L 6219 3978 
L 3513 3978 
L 3513 3053 
L 5275 3053 
L 5275 2622 
Q 4713 1378 3681 544 
Q 4703 -9 6306 -241 
Q 6081 -553 5950 -784 
Q 4166 -431 3209 213 
Q 2188 -419 419 -878 
Q 294 -591 144 -384 
Q 1847 -3 2797 531 
Q 1891 1309 1394 2597 
L 775 2597 
L 775 3053 
L 3000 3053 
L 3000 3978 
L 163 3978 
L 163 4434 
z
M 4669 2597 
L 1922 2597 
Q 2378 1469 3241 822 
Q 4209 1556 4669 2597 
z
" transform="scale(0.015625)"/>
      <path id="MicrosoftYaHei-734" d="M 88 1978 
Q 563 2084 963 2181 
L 963 3647 
L 144 3647 
L 144 4097 
L 963 4097 
L 963 5303 
L 1450 5303 
L 1450 4097 
L 2250 4097 
L 2250 3647 
L 1450 3647 
L 1450 2303 
Q 1841 2406 2138 2497 
Q 2144 2272 2181 2009 
Q 1791 1906 1450 1813 
L 1450 -72 
Q 1450 -772 813 -772 
Q 619 -772 219 -759 
Q 194 -503 138 -241 
Q 531 -284 706 -284 
Q 963 -284 963 9 
L 963 1678 
Q 500 1547 150 1441 
L 88 1978 
z
M 2175 3097 
L 3975 3097 
L 3975 3972 
L 2531 3972 
L 2531 4422 
L 3975 4422 
L 3975 5303 
L 4463 5303 
L 4463 4422 
L 5925 4422 
L 5925 3972 
L 4463 3972 
L 4463 3097 
L 6319 3097 
L 6319 2647 
L 2175 2647 
L 2175 3097 
z
M 2200 1797 
L 4844 1797 
L 4844 2434 
L 5331 2434 
L 5331 1797 
L 6263 1797 
L 6263 1347 
L 5331 1347 
L 5331 -72 
Q 5331 -759 4688 -766 
Q 4300 -772 3763 -759 
Q 3738 -553 3694 -266 
Q 4169 -316 4544 -316 
Q 4844 -316 4844 22 
L 4844 1347 
L 2200 1347 
L 2200 1797 
z
M 2594 972 
L 2944 1228 
Q 3406 741 3731 309 
L 3313 16 
Q 3006 491 2594 972 
z
" transform="scale(0.015625)"/>
      <path id="MicrosoftYaHei-367" d="M 5288 -1100 
Q 4172 119 4172 1850 
Q 4172 3603 5288 4838 
L 5825 4838 
Q 4716 3572 4716 1856 
Q 4716 166 5819 -1100 
L 5288 -1100 
z
" transform="scale(0.015625)"/>
      <path id="MicrosoftYaHei-bca" d="M 88 -291 
Q 544 328 581 1622 
L 1013 1622 
Q 994 1234 950 884 
Q 1181 466 1538 209 
L 1538 1916 
L 138 1916 
L 138 2322 
L 3025 2322 
L 3025 1916 
L 1950 1916 
L 1950 1253 
L 2956 1253 
L 2956 847 
L 1950 847 
L 1950 -16 
Q 2369 -184 2906 -197 
Q 4006 -266 6300 -166 
Q 6231 -372 6125 -659 
Q 3888 -716 2906 -634 
Q 1513 -597 850 347 
Q 688 -359 363 -878 
Q 238 -584 88 -291 
z
M 525 5041 
L 2725 5041 
L 2725 2634 
L 2313 2634 
L 2313 2828 
L 938 2828 
L 938 2634 
L 525 2634 
L 525 5041 
z
M 3263 3878 
L 4169 3878 
Q 4231 4247 4275 4591 
L 3031 4591 
L 3031 4997 
L 6169 4997 
L 6169 4591 
L 4738 4591 
Q 4681 4222 4613 3878 
L 5838 3878 
L 5838 1228 
L 5425 1228 
L 5425 3472 
L 3675 3472 
L 3675 1228 
L 3263 1228 
L 3263 3878 
z
M 4344 3203 
L 4756 3203 
L 4756 2422 
Q 4756 1809 4631 1372 
Q 5594 678 6050 284 
L 5713 -47 
Q 5213 422 4481 972 
Q 4444 903 4406 841 
Q 4031 241 3131 -109 
Q 2988 72 2794 259 
Q 3669 547 4006 1028 
Q 4344 1503 4344 2441 
L 4344 3203 
z
M 938 3203 
L 2313 3203 
L 2313 3753 
L 938 3753 
L 938 3203 
z
M 2313 4666 
L 938 4666 
L 938 4122 
L 2313 4122 
L 2313 4666 
z
" transform="scale(0.015625)"/>
      <path id="MicrosoftYaHei-368" d="M 1113 -1100 
L 575 -1100 
Q 1684 163 1684 1888 
Q 1684 3581 581 4838 
L 1113 4838 
Q 2222 3628 2222 1888 
Q 2222 128 1113 -1100 
z
" transform="scale(0.015625)"/>
     </defs>
     <use xlink:href="#MicrosoftYaHei-a9a"/>
     <use xlink:href="#MicrosoftYaHei-747" transform="translate(100 0)"/>
     <use xlink:href="#MicrosoftYaHei-aa7" transform="translate(200 0)"/>
     <use xlink:href="#MicrosoftYaHei-423" transform="translate(300 0)"/>
     <use xlink:href="#MicrosoftYaHei-775" transform="translate(400 0)"/>
     <use xlink:href="#MicrosoftYaHei-734" transform="translate(500 0)"/>
     <use xlink:href="#MicrosoftYaHei-367" transform="translate(600 0)"/>
     <use xlink:href="#MicrosoftYaHei-17" transform="translate(700 0)"/>
     <use xlink:href="#MicrosoftYaHei-18" transform="translate(758.640625 0)"/>
     <use xlink:href="#MicrosoftYaHei-bca" transform="translate(817.28125 0)"/>
     <use xlink:href="#MicrosoftYaHei-368" transform="translate(917.28125 0)"/>
    </g>
   </g>
   <g id="legend_1">
    <g id="patch_13">
     <path d="M 121.63475 264.792051 
L 139.63475 264.792051 
L 139.63475 258.492051 
L 121.63475 258.492051 
z
" style="fill: #329e78"/>
    </g>
    <g id="text_18">
     <!-- 完整 -->
     <g transform="translate(146.83475 264.792051) scale(0.09 -0.09)">
      <defs>
       <path id="MicrosoftYaHei-60f" d="M 275 1959 
L 6150 1959 
L 6150 1516 
L 4131 1516 
L 4131 191 
Q 4131 -222 4538 -222 
L 5200 -222 
Q 5625 -222 5675 65 
Q 5725 353 5744 884 
Q 5969 797 6294 697 
Q 6250 184 6181 -141 
Q 6094 -678 5425 -678 
L 4406 -678 
Q 3625 -678 3625 122 
L 3625 1516 
L 2503 1516 
Q 2488 -247 438 -834 
Q 313 -628 125 -372 
Q 1975 78 2006 1516 
L 275 1516 
L 275 1959 
z
M 325 4534 
L 3000 4534 
Q 2878 4788 2688 5128 
L 3175 5353 
Q 3422 4878 3575 4534 
L 6075 4534 
L 6075 3384 
L 5563 3384 
L 5563 4091 
L 838 4091 
L 838 3384 
L 325 3384 
L 325 4534 
z
M 1050 3253 
L 5450 3253 
L 5450 2816 
L 1050 2816 
L 1050 3253 
z
" transform="scale(0.015625)"/>
       <path id="MicrosoftYaHei-785" d="M 138 -234 
L 1263 -234 
L 1263 891 
L 1713 891 
L 1713 -234 
L 3025 -234 
L 3025 1178 
L 550 1178 
L 550 1578 
L 5800 1578 
L 5800 1178 
L 3475 1178 
L 3475 697 
L 5525 697 
L 5525 297 
L 3475 297 
L 3475 -234 
L 6256 -234 
L 6256 -634 
L 138 -634 
L 138 -234 
z
M 25 2003 
Q 825 2334 1481 2916 
L 913 2916 
L 913 2759 
L 506 2759 
L 506 4109 
L 1650 4109 
L 1650 4491 
L 250 4491 
L 250 4866 
L 1650 4866 
L 1650 5291 
L 2069 5291 
L 2069 4866 
L 3425 4866 
L 3425 4491 
L 2069 4491 
L 2069 4109 
L 3213 4109 
L 3213 2759 
L 2806 2759 
L 2806 2916 
L 2069 2916 
L 2069 2541 
L 2225 2747 
Q 2781 2484 3288 2216 
L 3075 1872 
Q 2550 2184 2069 2397 
L 2069 1722 
L 1650 1722 
L 1650 2647 
Q 1075 2078 288 1647 
Q 175 1803 25 2003 
z
M 3363 2078 
Q 4050 2341 4519 2716 
Q 4144 3134 3938 3716 
Q 3788 3447 3631 3197 
L 3256 3459 
Q 3850 4253 4163 5322 
L 4600 5191 
Q 4481 4872 4356 4572 
L 6263 4572 
L 6263 4172 
L 5850 4172 
Q 5644 3316 5181 2741 
Q 5638 2428 6325 2247 
Q 6169 2047 6013 1778 
Q 5319 2034 4844 2403 
Q 4363 1984 3650 1678 
Q 3525 1859 3363 2078 
z
M 5400 4172 
L 4219 4172 
Q 4394 3484 4838 3022 
Q 5244 3503 5400 4172 
z
M 2806 3266 
L 2806 3759 
L 2069 3759 
L 2069 3266 
L 2806 3266 
z
M 913 3266 
L 1650 3266 
L 1650 3759 
L 913 3759 
L 913 3266 
z
" transform="scale(0.015625)"/>
      </defs>
      <use xlink:href="#MicrosoftYaHei-60f"/>
      <use xlink:href="#MicrosoftYaHei-785" transform="translate(100 0)"/>
     </g>
    </g>
    <g id="patch_14">
     <path d="M 121.63475 279.100469 
L 139.63475 279.100469 
L 139.63475 272.800469 
L 121.63475 272.800469 
z
" style="fill: #d58b36"/>
    </g>
    <g id="text_19">
     <!-- 不完整 -->
     <g transform="translate(146.83475 279.100469) scale(0.09 -0.09)">
      <defs>
       <path id="MicrosoftYaHei-409" d="M 225 4772 
L 6181 4772 
L 6181 4284 
L 3881 4284 
Q 3581 3766 3081 3053 
L 3444 3053 
L 3444 -866 
L 2906 -866 
L 2906 2859 
Q 1838 1541 388 609 
Q 231 834 38 1059 
Q 2006 2291 3213 4284 
L 225 4284 
L 225 4772 
z
M 4069 2859 
Q 5238 2147 6325 1409 
L 5969 916 
Q 4681 1872 3763 2434 
L 4069 2859 
z
" transform="scale(0.015625)"/>
      </defs>
      <use xlink:href="#MicrosoftYaHei-409"/>
      <use xlink:href="#MicrosoftYaHei-60f" transform="translate(100 0)"/>
      <use xlink:href="#MicrosoftYaHei-785" transform="translate(200 0)"/>
     </g>
    </g>
    <g id="patch_15">
     <path d="M 191.83475 264.792051 
L 209.83475 264.792051 
L 209.83475 258.492051 
L 191.83475 258.492051 
z
" style="fill: #b1b8c1"/>
    </g>
    <g id="text_20">
     <!-- U -->
     <g transform="translate(217.03475 264.792051) scale(0.09 -0.09)">
      <defs>
       <path id="MicrosoftYaHei-3b" d="M 4213 1972 
Q 4213 -81 2350 -81 
Q 566 -81 566 1900 
L 566 4841 
L 1191 4841 
L 1191 1928 
Q 1191 475 2409 475 
Q 3588 475 3588 1881 
L 3588 4841 
L 4213 4841 
L 4213 1972 
z
" transform="scale(0.015625)"/>
      </defs>
      <use xlink:href="#MicrosoftYaHei-3b"/>
     </g>
    </g>
   </g>
  </g>
  <g id="axes_2">
   <g id="patch_16">
    <path d="M 348.628322 231.837393 
L 620.91992 231.837393 
L 620.91992 39.315154 
L 348.628322 39.315154 
z
" style="fill: #ffffff"/>
   </g>
   <g id="patch_17">
    <path d="M 361.005213 231.837393 
L 453.831894 231.837393 
L 453.831894 202.218587 
L 361.005213 202.218587 
z
" clip-path="url(#p2776ef9a1b)" style="fill: #329e78"/>
   </g>
   <g id="patch_18">
    <path d="M 515.716348 231.837393 
L 608.543029 231.837393 
L 608.543029 172.599781 
L 515.716348 172.599781 
z
" clip-path="url(#p2776ef9a1b)" style="fill: #329e78"/>
   </g>
   <g id="patch_19">
    <path d="M 361.005213 202.218587 
L 453.831894 202.218587 
L 453.831894 172.599781 
L 361.005213 172.599781 
z
" clip-path="url(#p2776ef9a1b)" style="fill: #e6b458"/>
   </g>
   <g id="patch_20">
    <path d="M 515.716348 172.599781 
L 608.543029 172.599781 
L 608.543029 128.171572 
L 515.716348 128.171572 
z
" clip-path="url(#p2776ef9a1b)" style="fill: #e6b458"/>
   </g>
   <g id="patch_21">
    <path d="M 361.005213 172.599781 
L 453.831894 172.599781 
L 453.831894 172.599781 
L 361.005213 172.599781 
z
" clip-path="url(#p2776ef9a1b)" style="fill: #c56161"/>
   </g>
   <g id="patch_22">
    <path d="M 515.716348 128.171572 
L 608.543029 128.171572 
L 608.543029 128.171572 
L 515.716348 128.171572 
z
" clip-path="url(#p2776ef9a1b)" style="fill: #c56161"/>
   </g>
   <g id="patch_23">
    <path d="M 361.005213 172.599781 
L 453.831894 172.599781 
L 453.831894 54.124557 
L 361.005213 54.124557 
z
" clip-path="url(#p2776ef9a1b)" style="fill: #b1b8c1"/>
   </g>
   <g id="patch_24">
    <path d="M 515.716348 128.171572 
L 608.543029 128.171572 
L 608.543029 54.124557 
L 515.716348 54.124557 
z
" clip-path="url(#p2776ef9a1b)" style="fill: #b1b8c1"/>
   </g>
   <g id="matplotlib.axis_3">
    <g id="xtick_3">
     <g id="line2d_10">
      <g>
       <use xlink:href="#m7e77317806" x="407.418554" y="231.837393" style="stroke: #000000; stroke-width: 0.8"/>
      </g>
     </g>
     <g id="text_21">
      <!-- 原缓存 -->
      <g transform="translate(392.418554 247.210831) scale(0.1 -0.1)">
       <use xlink:href="#MicrosoftYaHei-53d"/>
       <use xlink:href="#MicrosoftYaHei-9d9" transform="translate(100 0)"/>
       <use xlink:href="#MicrosoftYaHei-602" transform="translate(200 0)"/>
      </g>
     </g>
    </g>
    <g id="xtick_4">
     <g id="line2d_11">
      <g>
       <use xlink:href="#m7e77317806" x="562.129689" y="231.837393" style="stroke: #000000; stroke-width: 0.8"/>
      </g>
     </g>
     <g id="text_22">
      <!-- 全文检索 -->
      <g transform="translate(542.129689 247.182706) scale(0.1 -0.1)">
       <use xlink:href="#MicrosoftYaHei-4b6"/>
       <use xlink:href="#MicrosoftYaHei-786" transform="translate(100 0)"/>
       <use xlink:href="#MicrosoftYaHei-812" transform="translate(200 0)"/>
       <use xlink:href="#MicrosoftYaHei-9ab" transform="translate(300 0)"/>
      </g>
     </g>
    </g>
   </g>
   <g id="matplotlib.axis_4">
    <g id="ytick_8">
     <g id="line2d_12">
      <g>
       <use xlink:href="#m67336da601" x="348.628322" y="231.837393" style="stroke: #000000; stroke-width: 0.8"/>
      </g>
     </g>
     <g id="text_23">
      <!-- 0 -->
      <g transform="translate(335.76426 235.897452) scale(0.1 -0.1)">
       <use xlink:href="#MicrosoftYaHei-16"/>
      </g>
     </g>
    </g>
    <g id="ytick_9">
     <g id="line2d_13">
      <g>
       <use xlink:href="#m67336da601" x="348.628322" y="202.218587" style="stroke: #000000; stroke-width: 0.8"/>
      </g>
     </g>
     <g id="text_24">
      <!-- 2 -->
      <g transform="translate(335.76426 206.278646) scale(0.1 -0.1)">
       <use xlink:href="#MicrosoftYaHei-18"/>
      </g>
     </g>
    </g>
    <g id="ytick_10">
     <g id="line2d_14">
      <g>
       <use xlink:href="#m67336da601" x="348.628322" y="172.599781" style="stroke: #000000; stroke-width: 0.8"/>
      </g>
     </g>
     <g id="text_25">
      <!-- 4 -->
      <g transform="translate(335.76426 176.65984) scale(0.1 -0.1)">
       <use xlink:href="#MicrosoftYaHei-1a"/>
      </g>
     </g>
    </g>
    <g id="ytick_11">
     <g id="line2d_15">
      <g>
       <use xlink:href="#m67336da601" x="348.628322" y="142.980975" style="stroke: #000000; stroke-width: 0.8"/>
      </g>
     </g>
     <g id="text_26">
      <!-- 6 -->
      <g transform="translate(335.76426 147.041033) scale(0.1 -0.1)">
       <use xlink:href="#MicrosoftYaHei-1c"/>
      </g>
     </g>
    </g>
    <g id="ytick_12">
     <g id="line2d_16">
      <g>
       <use xlink:href="#m67336da601" x="348.628322" y="113.362169" style="stroke: #000000; stroke-width: 0.8"/>
      </g>
     </g>
     <g id="text_27">
      <!-- 8 -->
      <g transform="translate(335.76426 117.422227) scale(0.1 -0.1)">
       <use xlink:href="#MicrosoftYaHei-1e"/>
      </g>
     </g>
    </g>
    <g id="ytick_13">
     <g id="line2d_17">
      <g>
       <use xlink:href="#m67336da601" x="348.628322" y="83.743363" style="stroke: #000000; stroke-width: 0.8"/>
      </g>
     </g>
     <g id="text_28">
      <!-- 10 -->
      <g transform="translate(329.900197 87.803421) scale(0.1 -0.1)">
       <use xlink:href="#MicrosoftYaHei-17"/>
       <use xlink:href="#MicrosoftYaHei-16" transform="translate(58.640625 0)"/>
      </g>
     </g>
    </g>
    <g id="ytick_14">
     <g id="line2d_18">
      <g>
       <use xlink:href="#m67336da601" x="348.628322" y="54.124557" style="stroke: #000000; stroke-width: 0.8"/>
      </g>
     </g>
     <g id="text_29">
      <!-- 12 -->
      <g transform="translate(329.900197 58.184615) scale(0.1 -0.1)">
       <use xlink:href="#MicrosoftYaHei-17"/>
       <use xlink:href="#MicrosoftYaHei-18" transform="translate(58.640625 0)"/>
      </g>
     </g>
    </g>
    <g id="text_30">
     <!-- 数量 -->
     <g transform="translate(323.366018 145.576273) rotate(-90) scale(0.1 -0.1)">
      <use xlink:href="#MicrosoftYaHei-783"/>
      <use xlink:href="#MicrosoftYaHei-b4f" transform="translate(100 0)"/>
     </g>
    </g>
   </g>
   <g id="patch_25">
    <path d="M 348.628322 231.837393 
L 348.628322 39.315154 
" style="fill: none; stroke: #000000; stroke-width: 0.8; stroke-linejoin: miter; stroke-linecap: square"/>
   </g>
   <g id="patch_26">
    <path d="M 620.91992 231.837393 
L 620.91992 39.315154 
" style="fill: none; stroke: #000000; stroke-width: 0.8; stroke-linejoin: miter; stroke-linecap: square"/>
   </g>
   <g id="patch_27">
    <path d="M 348.628322 231.837393 
L 620.91992 231.837393 
" style="fill: none; stroke: #000000; stroke-width: 0.8; stroke-linejoin: miter; stroke-linecap: square"/>
   </g>
   <g id="patch_28">
    <path d="M 348.628322 39.315154 
L 620.91992 39.315154 
" style="fill: none; stroke: #000000; stroke-width: 0.8; stroke-linejoin: miter; stroke-linecap: square"/>
   </g>
   <g id="text_31">
    <!-- 2 -->
    <g transform="translate(404.193319 220.100256) scale(0.11 -0.11)">
     <use xlink:href="#MicrosoftYaHei-18"/>
    </g>
   </g>
   <g id="text_32">
    <!-- 4 -->
    <g transform="translate(558.904454 205.290853) scale(0.11 -0.11)">
     <use xlink:href="#MicrosoftYaHei-1a"/>
    </g>
   </g>
   <g id="text_33">
    <!-- 2 -->
    <g transform="translate(404.193319 190.48145) scale(0.11 -0.11)">
     <use xlink:href="#MicrosoftYaHei-18"/>
    </g>
   </g>
   <g id="text_34">
    <!-- 3 -->
    <g transform="translate(558.904454 153.457942) scale(0.11 -0.11)">
     <defs>
      <path id="MicrosoftYaHei-19" d="M 447 809 
Q 944 425 1569 425 
Q 2069 425 2361 670 
Q 2653 916 2653 1328 
Q 2653 2247 1338 2247 
L 934 2247 
L 934 2753 
L 1319 2753 
Q 2484 2753 2484 3616 
Q 2484 4413 1594 4413 
Q 1084 4413 634 4069 
L 634 4647 
Q 1109 4922 1744 4922 
Q 2363 4922 2738 4598 
Q 3113 4275 3113 3759 
Q 3113 2809 2144 2538 
L 2144 2525 
Q 2669 2469 2973 2155 
Q 3278 1841 3278 1372 
Q 3278 719 2808 319 
Q 2338 -81 1556 -81 
Q 869 -81 447 175 
L 447 809 
z
" transform="scale(0.015625)"/>
     </defs>
     <use xlink:href="#MicrosoftYaHei-19"/>
    </g>
   </g>
   <g id="text_35">
    <!-- 8 -->
    <g transform="translate(404.193319 116.434434) scale(0.11 -0.11)">
     <use xlink:href="#MicrosoftYaHei-1e"/>
    </g>
   </g>
   <g id="text_36">
    <!-- 5 -->
    <g transform="translate(558.904454 94.22033) scale(0.11 -0.11)">
     <use xlink:href="#MicrosoftYaHei-1b"/>
    </g>
   </g>
   <g id="text_37">
    <!-- 新答案质量（各12条） -->
    <g transform="translate(423.737246 33.315154) scale(0.12 -0.12)">
     <defs>
      <path id="MicrosoftYaHei-78f" d="M 3594 4797 
Q 4888 4809 5981 5053 
L 6144 4572 
Q 4906 4409 4038 4359 
L 4038 2903 
L 6319 2903 
L 6319 2478 
L 5425 2478 
L 5425 -797 
L 4963 -797 
L 4963 2478 
L 4038 2478 
L 4038 2172 
Q 4038 253 3119 -816 
Q 2969 -622 2788 -416 
Q 3594 466 3594 2191 
L 3594 4797 
z
M 263 1991 
L 1538 1991 
L 1538 2584 
L 1988 2584 
L 1988 1991 
L 3213 1991 
L 3213 1591 
L 1988 1591 
L 1988 -41 
Q 1988 -703 1350 -703 
Q 1081 -703 744 -697 
Q 719 -491 675 -222 
Q 1038 -259 1244 -259 
Q 1538 -259 1538 59 
L 1538 1591 
L 263 1591 
L 263 1991 
z
M 88 3159 
L 1094 3159 
Q 828 3581 594 3884 
L 931 4122 
Q 1138 3872 1463 3416 
L 1109 3159 
L 1934 3159 
Q 2275 3650 2563 4128 
L 3006 3878 
Q 2703 3488 2428 3159 
L 3375 3159 
L 3375 2759 
L 88 2759 
L 88 3159 
z
M 288 4609 
L 1638 4609 
Q 1503 4866 1331 5166 
L 1731 5353 
Q 1925 5034 2094 4709 
L 1884 4609 
L 3213 4609 
L 3213 4209 
L 288 4209 
L 288 4609 
z
M 744 1309 
L 1169 1109 
Q 831 403 500 -166 
Q 319 -53 88 59 
Q 394 534 744 1309 
z
M 2544 1278 
Q 2894 803 3156 403 
L 2756 128 
Q 2481 609 2175 1034 
L 2544 1278 
z
" transform="scale(0.015625)"/>
      <path id="MicrosoftYaHei-98b" d="M 1206 1247 
L 5206 1247 
L 5206 -834 
L 4719 -834 
L 4719 -447 
L 1694 -447 
L 1694 -847 
L 1206 -847 
L 1206 1247 
z
M 3419 3722 
Q 4450 2559 6350 2034 
Q 6169 1766 6044 1547 
Q 5313 1809 4700 2153 
L 4700 1778 
L 1713 1778 
L 1713 2138 
Q 1078 1763 319 1453 
Q 188 1684 44 1884 
Q 2038 2622 2963 3722 
L 3419 3722 
z
M 4719 809 
L 1694 809 
L 1694 -9 
L 4719 -9 
L 4719 809 
z
M 1319 5353 
L 1863 5353 
Q 1734 5022 1581 4716 
L 3394 4716 
L 3394 4284 
L 1347 4284 
Q 963 3641 450 3116 
Q 275 3303 88 3472 
Q 894 4259 1319 5353 
z
M 4006 5353 
L 4544 5353 
Q 4444 5019 4319 4716 
L 6275 4716 
L 6275 4284 
L 4113 4284 
Q 3916 3913 3669 3591 
Q 3481 3753 3263 3909 
Q 3800 4584 4006 5353 
z
M 3206 3272 
Q 2606 2678 1800 2191 
L 4634 2191 
Q 3809 2659 3206 3272 
z
M 4969 3159 
Q 4731 3553 4406 3966 
L 4788 4203 
Q 5131 3803 5381 3416 
L 4969 3159 
z
M 2013 3234 
Q 1800 3597 1513 3984 
L 1869 4203 
Q 2163 3847 2406 3497 
L 2013 3234 
z
" transform="scale(0.015625)"/>
      <path id="MicrosoftYaHei-804" d="M 419 1822 
Q 1925 1994 2766 2219 
Q 2016 2419 1250 2609 
Q 1506 2884 1738 3153 
L 250 3153 
L 250 3566 
L 2075 3566 
Q 2313 3866 2513 4159 
L 3019 4016 
Q 2850 3791 2659 3566 
L 6150 3566 
L 6150 3153 
L 4806 3153 
Q 4509 2625 4003 2297 
Q 4897 2063 5681 1847 
L 5481 1428 
Q 4491 1741 3466 2025 
Q 2516 1650 600 1409 
Q 525 1609 419 1822 
z
M 6319 -197 
Q 6106 -447 5956 -666 
Q 4306 -172 3425 544 
L 3425 -866 
L 2975 -866 
L 2975 534 
Q 2028 -134 456 -672 
Q 313 -491 94 -247 
Q 1706 156 2647 747 
L 238 747 
L 238 1166 
L 2975 1166 
L 2975 1678 
L 3425 1678 
L 3425 1166 
L 6200 1166 
L 6200 747 
L 3766 747 
Q 4753 81 6319 -197 
z
M 419 4734 
L 3038 4734 
Q 2919 4950 2763 5178 
L 3206 5378 
Q 3409 5059 3591 4734 
L 5975 4734 
L 5975 3791 
L 5500 3791 
L 5500 4322 
L 894 4322 
L 894 3791 
L 419 3791 
L 419 4734 
z
M 1963 2809 
Q 2725 2622 3425 2444 
Q 3975 2688 4284 3153 
L 2294 3153 
Q 2134 2981 1963 2809 
z
" transform="scale(0.015625)"/>
      <path id="MicrosoftYaHei-ac5" d="M 1838 2628 
L 3500 2628 
L 3500 3353 
L 1450 3353 
L 1450 3791 
L 3500 3791 
L 3500 4472 
L 4000 4472 
L 4000 3791 
L 6125 3791 
L 6125 3353 
L 4000 3353 
L 4000 2628 
L 5681 2628 
L 5681 428 
L 5194 428 
L 5194 2191 
L 2325 2191 
L 2325 428 
L 1838 428 
L 1838 2628 
z
M 713 4934 
Q 3744 4947 5988 5197 
L 6163 4709 
Q 3813 4541 1213 4497 
L 1213 2578 
Q 1213 178 406 -872 
Q 219 -653 31 -466 
Q 713 372 713 2534 
L 713 4934 
z
M 4000 1866 
Q 4013 1053 3919 691 
Q 5063 191 6263 -403 
L 5994 -866 
Q 4794 -203 3763 272 
Q 3275 -559 1344 -884 
Q 1238 -684 1075 -428 
Q 3019 -128 3350 534 
Q 3525 822 3513 1866 
L 4000 1866 
z
" transform="scale(0.015625)"/>
      <path id="MicrosoftYaHei-55f" d="M 1838 5366 
L 2325 5191 
Q 2191 4934 2038 4691 
L 5463 4691 
L 5463 4234 
Q 4819 3428 3806 2831 
Q 4881 2366 6375 2266 
Q 6169 1953 6025 1703 
Q 4388 1947 3272 2544 
Q 2022 1925 300 1578 
Q 169 1828 31 2059 
Q 1591 2303 2775 2844 
Q 2041 3347 1588 4038 
Q 1138 3444 569 2916 
Q 400 3122 225 3278 
Q 1288 4191 1838 5366 
z
M 1100 1666 
L 5363 1666 
L 5363 -803 
L 4875 -803 
L 4875 -441 
L 1588 -441 
L 1588 -803 
L 1100 -803 
L 1100 1666 
z
M 4875 1216 
L 1588 1216 
L 1588 -3 
L 4875 -3 
L 4875 1216 
z
M 4794 4241 
L 1988 4241 
Q 2494 3547 3275 3094 
Q 4153 3575 4794 4241 
z
" transform="scale(0.015625)"/>
      <path id="MicrosoftYaHei-7da" d="M 375 3347 
Q 1388 4178 2113 5328 
L 2681 5328 
Q 2488 5016 2284 4728 
L 5344 4728 
L 5344 4284 
Q 4606 3572 3797 3088 
Q 4747 2734 6313 2584 
Q 6100 2291 6038 2041 
Q 4253 2347 3272 2806 
Q 2156 2284 306 1897 
Q 213 2122 81 2347 
Q 1813 2666 2772 3069 
Q 2203 3416 1700 3978 
Q 1250 3453 750 3016 
Q 525 3241 375 3347 
z
M 694 1759 
L 3013 1759 
L 3013 2378 
L 3506 2378 
L 3506 1759 
L 5675 1759 
L 5675 1316 
L 3506 1316 
L 3506 3 
Q 3506 -728 2738 -728 
Q 2400 -728 1950 -722 
Q 1913 -466 1856 -172 
Q 2294 -222 2588 -222 
Q 3013 -222 3013 234 
L 3013 1316 
L 694 1316 
L 694 1759 
z
M 4706 4309 
L 1981 4309 
Q 2531 3719 3291 3319 
Q 4031 3722 4706 4309 
z
M 4094 666 
L 4381 1022 
Q 5413 459 6200 -53 
L 5900 -491 
Q 5150 47 4094 666 
z
M 1875 1084 
L 2244 741 
Q 1481 84 569 -541 
Q 425 -353 250 -159 
Q 1113 372 1875 1084 
z
" transform="scale(0.015625)"/>
     </defs>
     <use xlink:href="#MicrosoftYaHei-78f"/>
     <use xlink:href="#MicrosoftYaHei-98b" transform="translate(100 0)"/>
     <use xlink:href="#MicrosoftYaHei-804" transform="translate(200 0)"/>
     <use xlink:href="#MicrosoftYaHei-ac5" transform="translate(300 0)"/>
     <use xlink:href="#MicrosoftYaHei-b4f" transform="translate(400 0)"/>
     <use xlink:href="#MicrosoftYaHei-367" transform="translate(500 0)"/>
     <use xlink:href="#MicrosoftYaHei-55f" transform="translate(600 0)"/>
     <use xlink:href="#MicrosoftYaHei-17" transform="translate(700 0)"/>
     <use xlink:href="#MicrosoftYaHei-18" transform="translate(758.640625 0)"/>
     <use xlink:href="#MicrosoftYaHei-7da" transform="translate(817.28125 0)"/>
     <use xlink:href="#MicrosoftYaHei-368" transform="translate(917.28125 0)"/>
    </g>
   </g>
   <g id="legend_2">
    <g id="patch_29">
     <path d="M 421.651777 264.792051 
L 439.651777 264.792051 
L 439.651777 258.492051 
L 421.651777 258.492051 
z
" style="fill: #329e78"/>
    </g>
    <g id="text_38">
     <!-- 完整 -->
     <g transform="translate(446.851777 264.792051) scale(0.09 -0.09)">
      <use xlink:href="#MicrosoftYaHei-60f"/>
      <use xlink:href="#MicrosoftYaHei-785" transform="translate(100 0)"/>
     </g>
    </g>
    <g id="patch_30">
     <path d="M 421.651777 279.108906 
L 439.651777 279.108906 
L 439.651777 272.808906 
L 421.651777 272.808906 
z
" style="fill: #e6b458"/>
    </g>
    <g id="text_39">
     <!-- 部分 -->
     <g transform="translate(446.851777 279.108906) scale(0.09 -0.09)">
      <defs>
       <path id="MicrosoftYaHei-b42" d="M 6288 1247 
Q 6288 172 5444 84 
Q 5125 47 4594 109 
Q 4563 334 4513 659 
Q 4969 584 5294 584 
Q 5844 584 5794 1341 
Q 5769 2009 4838 2709 
Q 5244 3516 5663 4503 
L 4388 4503 
L 4388 -828 
L 3913 -828 
L 3913 4966 
L 6163 4966 
L 6163 4453 
Q 5919 3822 5406 2816 
Q 6288 2128 6288 1247 
z
M 575 1753 
L 3275 1753 
L 3275 -791 
L 2813 -791 
L 2813 -328 
L 1038 -328 
L 1038 -797 
L 575 -797 
L 575 1753 
z
M 2813 1334 
L 1038 1334 
L 1038 103 
L 2813 103 
L 2813 1334 
z
M 125 2822 
L 2125 2822 
Q 2497 3466 2731 3997 
L 3194 3759 
Q 2922 3284 2616 2822 
L 3706 2822 
L 3706 2403 
L 125 2403 
L 125 2822 
z
M 263 4472 
L 1825 4472 
Q 1703 4753 1456 5159 
L 1888 5359 
Q 2169 4891 2288 4616 
L 1981 4472 
L 3594 4472 
L 3594 4053 
L 263 4053 
L 263 4472 
z
M 681 3728 
L 1063 3959 
Q 1375 3516 1631 3072 
L 1206 2828 
Q 1013 3222 681 3728 
z
" transform="scale(0.015625)"/>
       <path id="MicrosoftYaHei-4e3" d="M 900 2559 
L 5056 2559 
Q 5025 1497 4963 484 
Q 4888 -684 3856 -678 
Q 3350 -684 2788 -647 
Q 2750 -384 2700 -116 
Q 3181 -184 3775 -191 
Q 4400 -203 4463 541 
Q 4513 1216 4538 2097 
L 2616 2097 
Q 2541 1053 2181 416 
Q 1706 -422 588 -878 
Q 425 -666 231 -459 
Q 1269 -72 1725 666 
Q 2053 1225 2103 2097 
L 900 2097 
L 900 2559 
z
M 3488 5159 
L 3938 5353 
Q 4625 3678 6350 2847 
Q 6069 2553 5944 2372 
Q 4225 3366 3488 5159 
z
M 50 2766 
Q 1338 3678 2250 5253 
L 2694 5009 
Q 1744 3347 413 2341 
Q 281 2534 50 2766 
z
" transform="scale(0.015625)"/>
      </defs>
      <use xlink:href="#MicrosoftYaHei-b42"/>
      <use xlink:href="#MicrosoftYaHei-4e3" transform="translate(100 0)"/>
     </g>
    </g>
    <g id="patch_31">
     <path d="M 482.851777 264.792051 
L 500.851777 264.792051 
L 500.851777 258.492051 
L 482.851777 258.492051 
z
" style="fill: #c56161"/>
    </g>
    <g id="text_40">
     <!-- 错误/未答 -->
     <g transform="translate(508.051777 264.792051) scale(0.09 -0.09)">
      <defs>
       <path id="MicrosoftYaHei-b6a" d="M 2625 2172 
L 5806 2172 
L 5806 -847 
L 5331 -847 
L 5331 -484 
L 3100 -484 
L 3100 -847 
L 2625 -847 
L 2625 2172 
z
M 2206 3128 
L 3125 3128 
L 3125 3966 
L 2394 3966 
L 2394 4391 
L 3125 4391 
L 3125 5291 
L 3600 5291 
L 3600 4391 
L 4738 4391 
L 4738 5291 
L 5213 5291 
L 5213 4391 
L 6094 4391 
L 6094 3966 
L 5213 3966 
L 5213 3128 
L 6275 3128 
L 6275 2703 
L 2206 2703 
L 2206 3128 
z
M 2081 847 
Q 2138 566 2188 378 
Q 1600 -178 1256 -528 
Q 1206 -591 1081 -759 
L 738 -372 
Q 913 -178 913 197 
L 913 1566 
L 113 1566 
L 113 2003 
L 913 2003 
L 913 2778 
L 644 2778 
L 644 3216 
L 1981 3216 
L 1981 2778 
L 1369 2778 
L 1369 2003 
L 2150 2003 
L 2150 1566 
L 1369 1566 
L 1369 178 
Q 1763 534 2081 847 
z
M 75 3166 
Q 613 4041 881 5316 
L 1350 5216 
Q 1241 4769 1103 4359 
L 2175 4359 
L 2175 3922 
L 944 3922 
Q 681 3244 331 2678 
Q 213 2916 75 3166 
z
M 3100 -72 
L 5331 -72 
L 5331 647 
L 3100 647 
L 3100 -72 
z
M 5331 1759 
L 3100 1759 
L 3100 1047 
L 5331 1047 
L 5331 1759 
z
M 3600 3128 
L 4738 3128 
L 4738 3966 
L 3600 3966 
L 3600 3128 
z
" transform="scale(0.015625)"/>
       <path id="MicrosoftYaHei-aa8" d="M 1819 1484 
L 3706 1484 
Q 3750 1769 3756 2222 
L 2044 2222 
L 2044 2659 
L 6069 2659 
L 6069 2222 
L 4244 2222 
Q 4234 1753 4203 1484 
L 6288 1484 
L 6288 1047 
L 4356 1047 
Q 4913 -53 6363 -359 
Q 6138 -628 5981 -828 
Q 4538 -406 3984 850 
Q 3569 -272 1969 -847 
Q 1819 -653 1631 -441 
Q 3188 53 3588 1047 
L 1819 1047 
L 1819 1484 
z
M 2325 5034 
L 5750 5034 
L 5750 2991 
L 5275 2991 
L 5275 3272 
L 2800 3272 
L 2800 2991 
L 2325 2991 
L 2325 5034 
z
M 2044 784 
Q 2063 459 2088 247 
Q 1294 -272 925 -584 
L 631 -166 
Q 844 9 844 378 
L 844 2716 
L 100 2716 
L 100 3166 
L 1325 3166 
L 1325 284 
Q 1763 578 2044 784 
z
M 5275 4616 
L 2800 4616 
L 2800 3691 
L 5275 3691 
L 5275 4616 
z
M 831 5153 
Q 1281 4697 1725 4184 
L 1294 3822 
Q 881 4347 450 4822 
L 831 5153 
z
" transform="scale(0.015625)"/>
       <path id="MicrosoftYaHei-15" d="M 2791 4841 
L 469 -803 
L -103 -803 
L 2219 4841 
L 2791 4841 
z
" transform="scale(0.015625)"/>
       <path id="MicrosoftYaHei-7cc" d="M 6325 128 
Q 6150 -84 5975 -334 
Q 4328 488 3444 1791 
L 3444 -822 
L 2956 -822 
L 2956 1784 
Q 2006 525 419 -409 
Q 300 -241 81 9 
Q 1778 900 2763 2153 
L 181 2153 
L 181 2616 
L 2956 2616 
L 2956 3791 
L 550 3791 
L 550 4253 
L 2956 4253 
L 2956 5322 
L 3444 5322 
L 3444 4253 
L 5875 4253 
L 5875 3791 
L 3444 3791 
L 3444 2616 
L 6219 2616 
L 6219 2153 
L 3619 2153 
Q 4625 809 6325 128 
z
" transform="scale(0.015625)"/>
      </defs>
      <use xlink:href="#MicrosoftYaHei-b6a"/>
      <use xlink:href="#MicrosoftYaHei-aa8" transform="translate(100 0)"/>
      <use xlink:href="#MicrosoftYaHei-15" transform="translate(200 0)"/>
      <use xlink:href="#MicrosoftYaHei-7cc" transform="translate(242.71875 0)"/>
      <use xlink:href="#MicrosoftYaHei-98b" transform="translate(342.71875 0)"/>
     </g>
    </g>
    <g id="patch_32">
     <path d="M 482.851777 278.880918 
L 500.851777 278.880918 
L 500.851777 272.580918 
L 482.851777 272.580918 
z
" style="fill: #b1b8c1"/>
    </g>
    <g id="text_41">
     <!-- U -->
     <g transform="translate(508.051777 278.880918) scale(0.09 -0.09)">
      <use xlink:href="#MicrosoftYaHei-3b"/>
     </g>
    </g>
   </g>
  </g>
  <g id="axes_3">
   <g id="patch_33">
    <path d="M 660.708162 231.837393 
L 932.99976 231.837393 
L 932.99976 39.315154 
L 660.708162 39.315154 
z
" style="fill: #ffffff"/>
   </g>
   <g id="patch_34">
    <path d="M 673.085053 231.837393 
L 765.911734 231.837393 
L 765.911734 202.218587 
L 673.085053 202.218587 
z
" clip-path="url(#p02151ec12a)" style="fill: #329e78"/>
   </g>
   <g id="patch_35">
    <path d="M 827.796188 231.837393 
L 920.622869 231.837393 
L 920.622869 142.980975 
L 827.796188 142.980975 
z
" clip-path="url(#p02151ec12a)" style="fill: #329e78"/>
   </g>
   <g id="patch_36">
    <path d="M 673.085053 202.218587 
L 765.911734 202.218587 
L 765.911734 142.980975 
L 673.085053 142.980975 
z
" clip-path="url(#p02151ec12a)" style="fill: #d58b36"/>
   </g>
   <g id="patch_37">
    <path d="M 827.796188 142.980975 
L 920.622869 142.980975 
L 920.622869 128.171572 
L 827.796188 128.171572 
z
" clip-path="url(#p02151ec12a)" style="fill: #d58b36"/>
   </g>
   <g id="patch_38">
    <path d="M 673.085053 142.980975 
L 765.911734 142.980975 
L 765.911734 54.124557 
L 673.085053 54.124557 
z
" clip-path="url(#p02151ec12a)" style="fill: #b1b8c1"/>
   </g>
   <g id="patch_39">
    <path d="M 827.796188 128.171572 
L 920.622869 128.171572 
L 920.622869 54.124557 
L 827.796188 54.124557 
z
" clip-path="url(#p02151ec12a)" style="fill: #b1b8c1"/>
   </g>
   <g id="matplotlib.axis_5">
    <g id="xtick_5">
     <g id="line2d_19">
      <g>
       <use xlink:href="#m7e77317806" x="719.498394" y="231.837393" style="stroke: #000000; stroke-width: 0.8"/>
      </g>
     </g>
     <g id="text_42">
      <!-- 原缓存 -->
      <g transform="translate(704.498394 247.210831) scale(0.1 -0.1)">
       <use xlink:href="#MicrosoftYaHei-53d"/>
       <use xlink:href="#MicrosoftYaHei-9d9" transform="translate(100 0)"/>
       <use xlink:href="#MicrosoftYaHei-602" transform="translate(200 0)"/>
      </g>
     </g>
    </g>
    <g id="xtick_6">
     <g id="line2d_20">
      <g>
       <use xlink:href="#m7e77317806" x="874.209529" y="231.837393" style="stroke: #000000; stroke-width: 0.8"/>
      </g>
     </g>
     <g id="text_43">
      <!-- 全文检索 -->
      <g transform="translate(854.209529 247.182706) scale(0.1 -0.1)">
       <use xlink:href="#MicrosoftYaHei-4b6"/>
       <use xlink:href="#MicrosoftYaHei-786" transform="translate(100 0)"/>
       <use xlink:href="#MicrosoftYaHei-812" transform="translate(200 0)"/>
       <use xlink:href="#MicrosoftYaHei-9ab" transform="translate(300 0)"/>
      </g>
     </g>
    </g>
   </g>
   <g id="matplotlib.axis_6">
    <g id="ytick_15">
     <g id="line2d_21">
      <g>
       <use xlink:href="#m67336da601" x="660.708162" y="231.837393" style="stroke: #000000; stroke-width: 0.8"/>
      </g>
     </g>
     <g id="text_44">
      <!-- 0 -->
      <g transform="translate(647.8441 235.897452) scale(0.1 -0.1)">
       <use xlink:href="#MicrosoftYaHei-16"/>
      </g>
     </g>
    </g>
    <g id="ytick_16">
     <g id="line2d_22">
      <g>
       <use xlink:href="#m67336da601" x="660.708162" y="202.218587" style="stroke: #000000; stroke-width: 0.8"/>
      </g>
     </g>
     <g id="text_45">
      <!-- 2 -->
      <g transform="translate(647.8441 206.278646) scale(0.1 -0.1)">
       <use xlink:href="#MicrosoftYaHei-18"/>
      </g>
     </g>
    </g>
    <g id="ytick_17">
     <g id="line2d_23">
      <g>
       <use xlink:href="#m67336da601" x="660.708162" y="172.599781" style="stroke: #000000; stroke-width: 0.8"/>
      </g>
     </g>
     <g id="text_46">
      <!-- 4 -->
      <g transform="translate(647.8441 176.65984) scale(0.1 -0.1)">
       <use xlink:href="#MicrosoftYaHei-1a"/>
      </g>
     </g>
    </g>
    <g id="ytick_18">
     <g id="line2d_24">
      <g>
       <use xlink:href="#m67336da601" x="660.708162" y="142.980975" style="stroke: #000000; stroke-width: 0.8"/>
      </g>
     </g>
     <g id="text_47">
      <!-- 6 -->
      <g transform="translate(647.8441 147.041033) scale(0.1 -0.1)">
       <use xlink:href="#MicrosoftYaHei-1c"/>
      </g>
     </g>
    </g>
    <g id="ytick_19">
     <g id="line2d_25">
      <g>
       <use xlink:href="#m67336da601" x="660.708162" y="113.362169" style="stroke: #000000; stroke-width: 0.8"/>
      </g>
     </g>
     <g id="text_48">
      <!-- 8 -->
      <g transform="translate(647.8441 117.422227) scale(0.1 -0.1)">
       <use xlink:href="#MicrosoftYaHei-1e"/>
      </g>
     </g>
    </g>
    <g id="ytick_20">
     <g id="line2d_26">
      <g>
       <use xlink:href="#m67336da601" x="660.708162" y="83.743363" style="stroke: #000000; stroke-width: 0.8"/>
      </g>
     </g>
     <g id="text_49">
      <!-- 10 -->
      <g transform="translate(641.980037 87.803421) scale(0.1 -0.1)">
       <use xlink:href="#MicrosoftYaHei-17"/>
       <use xlink:href="#MicrosoftYaHei-16" transform="translate(58.640625 0)"/>
      </g>
     </g>
    </g>
    <g id="ytick_21">
     <g id="line2d_27">
      <g>
       <use xlink:href="#m67336da601" x="660.708162" y="54.124557" style="stroke: #000000; stroke-width: 0.8"/>
      </g>
     </g>
     <g id="text_50">
      <!-- 12 -->
      <g transform="translate(641.980037 58.184615) scale(0.1 -0.1)">
       <use xlink:href="#MicrosoftYaHei-17"/>
       <use xlink:href="#MicrosoftYaHei-18" transform="translate(58.640625 0)"/>
      </g>
     </g>
    </g>
    <g id="text_51">
     <!-- 数量 -->
     <g transform="translate(635.445857 145.576273) rotate(-90) scale(0.1 -0.1)">
      <use xlink:href="#MicrosoftYaHei-783"/>
      <use xlink:href="#MicrosoftYaHei-b4f" transform="translate(100 0)"/>
     </g>
    </g>
   </g>
   <g id="patch_40">
    <path d="M 660.708162 231.837393 
L 660.708162 39.315154 
" style="fill: none; stroke: #000000; stroke-width: 0.8; stroke-linejoin: miter; stroke-linecap: square"/>
   </g>
   <g id="patch_41">
    <path d="M 932.99976 231.837393 
L 932.99976 39.315154 
" style="fill: none; stroke: #000000; stroke-width: 0.8; stroke-linejoin: miter; stroke-linecap: square"/>
   </g>
   <g id="patch_42">
    <path d="M 660.708162 231.837393 
L 932.99976 231.837393 
" style="fill: none; stroke: #000000; stroke-width: 0.8; stroke-linejoin: miter; stroke-linecap: square"/>
   </g>
   <g id="patch_43">
    <path d="M 660.708162 39.315154 
L 932.99976 39.315154 
" style="fill: none; stroke: #000000; stroke-width: 0.8; stroke-linejoin: miter; stroke-linecap: square"/>
   </g>
   <g id="text_52">
    <!-- 2 -->
    <g transform="translate(716.273159 220.100256) scale(0.11 -0.11)">
     <use xlink:href="#MicrosoftYaHei-18"/>
    </g>
   </g>
   <g id="text_53">
    <!-- 6 -->
    <g transform="translate(870.984294 190.48145) scale(0.11 -0.11)">
     <use xlink:href="#MicrosoftYaHei-1c"/>
    </g>
   </g>
   <g id="text_54">
    <!-- 4 -->
    <g transform="translate(716.273159 175.672047) scale(0.11 -0.11)">
     <use xlink:href="#MicrosoftYaHei-1a"/>
    </g>
   </g>
   <g id="text_55">
    <!-- 1 -->
    <g transform="translate(870.984294 138.648539) scale(0.11 -0.11)">
     <use xlink:href="#MicrosoftYaHei-17"/>
    </g>
   </g>
   <g id="text_56">
    <!-- 6 -->
    <g transform="translate(716.273159 101.625031) scale(0.11 -0.11)">
     <use xlink:href="#MicrosoftYaHei-1c"/>
    </g>
   </g>
   <g id="text_57">
    <!-- 5 -->
    <g transform="translate(870.984294 94.22033) scale(0.11 -0.11)">
     <use xlink:href="#MicrosoftYaHei-1b"/>
    </g>
   </g>
   <g id="text_58">
    <!-- 新代理状态（各12条） -->
    <g transform="translate(735.817086 33.315154) scale(0.12 -0.12)">
     <defs>
      <path id="MicrosoftYaHei-457" d="M 1850 3141 
L 3328 3303 
Q 3253 4097 3225 5284 
L 3769 5284 
Q 3756 4350 3847 3359 
L 6138 3609 
L 6194 3147 
L 3897 2894 
Q 4250 306 5256 -209 
Q 5531 -322 5613 -28 
Q 5731 416 5813 978 
Q 6075 866 6313 797 
Q 6219 191 6088 -278 
Q 5919 -822 5419 -809 
Q 4881 -791 4394 -166 
Q 3669 678 3384 2838 
L 1925 2678 
L 1850 3141 
z
M 38 2322 
Q 1013 3634 1581 5322 
L 2081 5147 
Q 1803 4419 1500 3794 
L 1500 -841 
L 988 -841 
L 988 2834 
Q 631 2238 250 1759 
Q 163 2016 38 2322 
z
M 4344 4791 
L 4669 5122 
Q 5219 4703 5794 4191 
L 5413 3803 
Q 4888 4341 4344 4791 
z
" transform="scale(0.015625)"/>
      <path id="MicrosoftYaHei-8f2" d="M 2031 -166 
L 3988 -166 
L 3988 734 
L 2394 734 
L 2394 1172 
L 3988 1172 
L 3988 1997 
L 2988 1997 
L 2988 1766 
L 2525 1766 
L 2525 4991 
L 5913 4991 
L 5913 1766 
L 5450 1766 
L 5450 1997 
L 4450 1997 
L 4450 1172 
L 6044 1172 
L 6044 734 
L 4450 734 
L 4450 -166 
L 6319 -166 
L 6319 -603 
L 2031 -603 
L 2031 -166 
z
M 44 203 
Q 525 319 975 434 
L 975 2328 
L 194 2328 
L 194 2766 
L 975 2766 
L 975 4328 
L 131 4328 
L 131 4766 
L 2281 4766 
L 2281 4328 
L 1438 4328 
L 1438 2766 
L 2231 2766 
L 2231 2328 
L 1438 2328 
L 1438 559 
Q 1850 675 2238 791 
Q 2269 509 2306 303 
Q 1238 16 213 -303 
L 44 203 
z
M 4450 2422 
L 5450 2422 
L 5450 3291 
L 4450 3291 
L 4450 2422 
z
M 2988 2422 
L 3988 2422 
L 3988 3291 
L 2988 3291 
L 2988 2422 
z
M 5450 4566 
L 4450 4566 
L 4450 3703 
L 5450 3703 
L 5450 4566 
z
M 2988 3703 
L 3988 3703 
L 3988 4566 
L 2988 4566 
L 2988 3703 
z
" transform="scale(0.015625)"/>
      <path id="MicrosoftYaHei-8d9" d="M 2213 3516 
L 3791 3516 
Q 3825 4369 3825 5297 
L 4325 5297 
Q 4325 4338 4294 3516 
L 6175 3516 
L 6175 3047 
L 4309 3047 
Q 4884 628 6313 -228 
Q 6069 -491 5906 -703 
Q 4638 266 4119 2106 
Q 3766 413 2363 -809 
Q 2169 -541 2013 -384 
Q 3600 853 3766 3047 
L 2213 3047 
L 2213 3516 
z
M 1494 5316 
L 1994 5316 
L 1994 -834 
L 1494 -834 
L 1494 1606 
Q 916 1119 400 691 
L 75 1122 
Q 769 1628 1494 2222 
L 1494 5316 
z
M 219 4134 
L 644 4334 
Q 1019 3672 1306 2884 
L 831 2666 
Q 519 3541 219 4134 
z
M 5006 5053 
Q 5550 4641 5950 4278 
Q 5775 4078 5606 3884 
Q 5150 4328 4681 4716 
L 5006 5053 
z
" transform="scale(0.015625)"/>
      <path id="MicrosoftYaHei-6c1" d="M 325 4434 
L 2888 4434 
Q 2972 4822 2969 5328 
L 3438 5328 
Q 3444 4841 3372 4434 
L 6075 4434 
L 6075 3991 
L 3528 3991 
Q 4419 2706 6231 2241 
Q 6050 2034 5881 1759 
Q 4041 2394 3172 3772 
Q 2975 3331 2588 2953 
Q 3078 2616 3538 2259 
L 3225 1891 
Q 2828 2244 2259 2675 
Q 1556 2138 388 1703 
Q 294 1922 113 2178 
Q 2250 2866 2750 3991 
L 325 3991 
L 325 4434 
z
M 1713 1547 
L 2200 1547 
L 2200 203 
Q 2200 -172 2575 -172 
L 3763 -172 
Q 4175 -172 4256 134 
Q 4331 428 4381 1028 
Q 4556 953 4863 847 
Q 4763 128 4706 -47 
Q 4563 -616 3869 -616 
L 2488 -616 
Q 1713 -616 1713 172 
L 1713 1547 
z
M 813 1447 
L 1281 1297 
Q 1038 522 663 -297 
Q 463 -203 194 -116 
Q 569 591 813 1447 
z
M 4894 1272 
L 5263 1553 
Q 5781 972 6306 309 
L 5888 -9 
Q 5425 641 4894 1272 
z
M 2594 1503 
L 2913 1809 
Q 3419 1403 3850 991 
L 3488 641 
Q 3094 1059 2594 1503 
z
" transform="scale(0.015625)"/>
     </defs>
     <use xlink:href="#MicrosoftYaHei-78f"/>
     <use xlink:href="#MicrosoftYaHei-457" transform="translate(100 0)"/>
     <use xlink:href="#MicrosoftYaHei-8f2" transform="translate(200 0)"/>
     <use xlink:href="#MicrosoftYaHei-8d9" transform="translate(300 0)"/>
     <use xlink:href="#MicrosoftYaHei-6c1" transform="translate(400 0)"/>
     <use xlink:href="#MicrosoftYaHei-367" transform="translate(500 0)"/>
     <use xlink:href="#MicrosoftYaHei-55f" transform="translate(600 0)"/>
     <use xlink:href="#MicrosoftYaHei-17" transform="translate(700 0)"/>
     <use xlink:href="#MicrosoftYaHei-18" transform="translate(758.640625 0)"/>
     <use xlink:href="#MicrosoftYaHei-7da" transform="translate(817.28125 0)"/>
     <use xlink:href="#MicrosoftYaHei-368" transform="translate(917.28125 0)"/>
    </g>
   </g>
   <g id="legend_3">
    <g id="patch_44">
     <path d="M 745.79443 264.792051 
L 763.79443 264.792051 
L 763.79443 258.492051 
L 745.79443 258.492051 
z
" style="fill: #329e78"/>
    </g>
    <g id="text_59">
     <!-- 完整 -->
     <g transform="translate(770.99443 264.792051) scale(0.09 -0.09)">
      <use xlink:href="#MicrosoftYaHei-60f"/>
      <use xlink:href="#MicrosoftYaHei-785" transform="translate(100 0)"/>
     </g>
    </g>
    <g id="patch_45">
     <path d="M 745.79443 279.100469 
L 763.79443 279.100469 
L 763.79443 272.800469 
L 745.79443 272.800469 
z
" style="fill: #d58b36"/>
    </g>
    <g id="text_60">
     <!-- 不完整 -->
     <g transform="translate(770.99443 279.100469) scale(0.09 -0.09)">
      <use xlink:href="#MicrosoftYaHei-409"/>
      <use xlink:href="#MicrosoftYaHei-60f" transform="translate(100 0)"/>
      <use xlink:href="#MicrosoftYaHei-785" transform="translate(200 0)"/>
     </g>
    </g>
    <g id="patch_46">
     <path d="M 815.99443 264.792051 
L 833.99443 264.792051 
L 833.99443 258.492051 
L 815.99443 258.492051 
z
" style="fill: #b1b8c1"/>
    </g>
    <g id="text_61">
     <!-- U -->
     <g transform="translate(841.19443 264.792051) scale(0.09 -0.09)">
      <use xlink:href="#MicrosoftYaHei-3b"/>
     </g>
    </g>
   </g>
  </g>
  <g id="text_62">
   <!-- V4 开发验证：已用题的新回答；灰色 U 全部保留 -->
   <g transform="translate(325.669297 13.93649) scale(0.13 -0.13)">
    <defs>
     <path id="MicrosoftYaHei-3c" d="M 4272 4841 
L 2494 0 
L 1800 0 
L 56 4841 
L 750 4841 
L 2053 1056 
Q 2119 869 2150 622 
L 2166 622 
Q 2191 838 2275 1063 
L 3603 4841 
L 4272 4841 
z
" transform="scale(0.015625)"/>
     <path id="MicrosoftYaHei-3" transform="scale(0.015625)"/>
     <path id="MicrosoftYaHei-690" d="M 125 2553 
L 1756 2553 
L 1756 4372 
L 400 4372 
L 400 4866 
L 6006 4866 
L 6006 4372 
L 4731 4372 
L 4731 2553 
L 6275 2553 
L 6275 2059 
L 4731 2059 
L 4731 -791 
L 4219 -791 
L 4219 2059 
L 2266 2059 
Q 2244 916 1938 359 
Q 1631 -253 531 -872 
Q 369 -647 175 -434 
Q 1131 53 1450 584 
Q 1734 1013 1753 2059 
L 125 2059 
L 125 2553 
z
M 2269 2553 
L 4219 2553 
L 4219 4372 
L 2269 4372 
L 2269 2553 
z
" transform="scale(0.015625)"/>
     <path id="MicrosoftYaHei-547" d="M 944 3909 
L 2266 3909 
Q 2419 4563 2525 5334 
L 3056 5266 
Q 2950 4556 2797 3909 
L 6250 3909 
L 6250 3447 
L 2678 3447 
Q 2566 3034 2431 2653 
L 5531 2653 
L 5531 2222 
Q 5119 1200 4247 456 
Q 5125 -75 6294 -291 
Q 6013 -603 5856 -816 
Q 4856 -484 3844 153 
Q 3031 -381 1519 -859 
Q 1344 -609 1144 -397 
Q 2681 3 3441 450 
Q 2619 1153 2269 2222 
Q 1584 509 406 -591 
Q 238 -353 75 -166 
Q 1484 1106 2147 3447 
L 413 3447 
L 413 3916 
Q 669 4509 881 5109 
L 1388 4972 
Q 1169 4422 944 3909 
z
M 4981 2222 
L 2722 2222 
Q 3003 1356 3838 731 
Q 4647 1400 4981 2222 
z
M 4019 4903 
L 4294 5253 
Q 4906 4866 5469 4447 
L 5131 4041 
Q 4588 4503 4019 4903 
z
" transform="scale(0.015625)"/>
     <path id="MicrosoftYaHei-be0" d="M 963 4116 
L 819 2397 
L 1450 2397 
L 1613 4503 
L 194 4503 
L 194 4928 
L 2088 4928 
L 1894 2397 
L 2288 2397 
Q 2244 1078 2206 228 
Q 2188 -722 1381 -722 
Q 1044 -722 588 -703 
Q 556 -472 506 -209 
Q 956 -266 1306 -266 
Q 1744 -266 1769 266 
Q 1806 953 1831 1972 
L 331 1972 
L 531 4116 
L 963 4116 
z
M 2338 -103 
L 4594 -103 
Q 5044 1009 5394 2222 
L 5869 2072 
Q 5500 953 5088 -103 
L 6188 -103 
L 6188 -534 
L 2338 -534 
L 2338 -103 
z
M 4606 5278 
L 4488 5078 
Q 5244 3734 6363 3122 
Q 6163 2872 6031 2684 
Q 4931 3497 4238 4641 
Q 3600 3509 2456 2609 
Q 2344 2772 2144 3003 
Q 3388 3866 4050 5278 
L 4606 5278 
z
M 2975 2978 
L 5550 2978 
L 5550 2547 
L 2975 2547 
L 2975 2978 
z
M 3731 2178 
L 4175 2297 
Q 4438 1359 4606 659 
L 4150 528 
Q 3969 1391 3731 2178 
z
M 2656 1897 
L 3094 2034 
Q 3400 1147 3606 453 
L 3144 297 
Q 2938 1097 2656 1897 
z
M 38 1034 
Q 763 1178 1631 1384 
Q 1625 1134 1638 941 
Q 925 791 131 572 
L 38 1034 
z
" transform="scale(0.015625)"/>
     <path id="MicrosoftYaHei-379" d="M 1606 3531 
Q 1772 3531 1890 3415 
Q 2009 3300 2009 3138 
Q 2009 2975 1893 2858 
Q 1778 2741 1606 2741 
Q 1434 2741 1318 2858 
Q 1203 2975 1203 3138 
Q 1203 3300 1322 3415 
Q 1441 3531 1606 3531 
z
M 1606 716 
Q 1772 716 1890 600 
Q 2009 484 2009 319 
Q 2009 150 1890 36 
Q 1772 -78 1606 -78 
Q 1441 -78 1322 36 
Q 1203 150 1203 319 
Q 1203 484 1322 600 
Q 1441 716 1606 716 
z
" transform="scale(0.015625)"/>
     <path id="MicrosoftYaHei-65d" d="M 738 3684 
L 1275 3684 
L 1275 2828 
L 5013 2828 
L 5013 4434 
L 506 4434 
L 506 4897 
L 5538 4897 
L 5538 1984 
L 5013 1984 
L 5013 2366 
L 1275 2366 
L 1275 547 
Q 1275 -28 1819 -28 
L 4900 -28 
Q 5438 -28 5550 359 
Q 5663 741 5719 1378 
Q 5963 1272 6256 1191 
Q 6169 541 6069 153 
Q 5881 -553 5019 -553 
L 1694 -553 
Q 738 -553 738 434 
L 738 3684 
z
" transform="scale(0.015625)"/>
     <path id="MicrosoftYaHei-900" d="M 3088 -734 
L 3088 1253 
L 1269 1253 
Q 1163 -47 513 -903 
Q 350 -697 144 -472 
Q 550 103 694 803 
Q 831 1478 831 2716 
L 831 4947 
L 5925 4947 
L 5925 -22 
Q 5925 -766 5219 -766 
Q 4788 -766 4250 -747 
Q 4219 -541 4156 -228 
Q 4700 -266 5038 -266 
Q 5425 -266 5425 103 
L 5425 1253 
L 3588 1253 
L 3588 -734 
L 3088 -734 
z
M 3588 1703 
L 5425 1703 
L 5425 2872 
L 3588 2872 
L 3588 1703 
z
M 5425 4484 
L 3588 4484 
L 3588 3322 
L 5425 3322 
L 5425 4484 
z
M 1303 1703 
L 3088 1703 
L 3088 2872 
L 1331 2872 
Q 1350 2266 1303 1703 
z
M 1331 4484 
L 1331 3322 
L 3088 3322 
L 3088 4484 
L 1331 4484 
z
" transform="scale(0.015625)"/>
     <path id="MicrosoftYaHei-919" d="M 356 4284 
L 988 4284 
Q 1219 4853 1369 5322 
L 1894 5172 
Q 1697 4694 1513 4284 
L 2763 4284 
L 2763 -691 
L 2263 -691 
L 2263 -203 
L 856 -203 
L 856 -734 
L 356 -734 
L 356 4284 
z
M 2856 3003 
Q 3444 3934 3850 5322 
L 4375 5191 
Q 4216 4719 4050 4303 
L 6063 4303 
Q 5988 1091 5938 259 
Q 5894 -722 4906 -722 
Q 4338 -722 3750 -684 
Q 3713 -372 3650 -128 
L 3669 -128 
Q 4294 -216 4813 -216 
Q 5381 -216 5425 384 
Q 5494 1316 5525 3834 
L 3850 3834 
Q 3578 3231 3288 2772 
Q 3119 2891 2856 3003 
z
M 856 266 
L 2263 266 
L 2263 1847 
L 856 1847 
L 856 266 
z
M 2263 3816 
L 856 3816 
L 856 2297 
L 2263 2297 
L 2263 3816 
z
M 3406 2578 
L 3788 2859 
Q 4481 2041 4894 1441 
L 4431 1116 
Q 3988 1841 3406 2578 
z
" transform="scale(0.015625)"/>
     <path id="MicrosoftYaHei-59b" d="M 475 4947 
L 5938 4947 
L 5938 -778 
L 5413 -778 
L 5413 -378 
L 1000 -378 
L 1000 -778 
L 475 -778 
L 475 4947 
z
M 5413 4484 
L 1000 4484 
L 1000 72 
L 5413 72 
L 5413 4484 
z
M 1875 3528 
L 4531 3528 
L 4531 797 
L 4044 797 
L 4044 1147 
L 2363 1147 
L 2363 797 
L 1875 797 
L 1875 3528 
z
M 4044 3091 
L 2363 3091 
L 2363 1584 
L 4044 1584 
L 4044 3091 
z
" transform="scale(0.015625)"/>
     <path id="MicrosoftYaHei-37a" d="M 1606 3531 
Q 1772 3531 1890 3415 
Q 2009 3300 2009 3138 
Q 2009 2975 1893 2858 
Q 1778 2741 1606 2741 
Q 1434 2741 1318 2858 
Q 1203 2975 1203 3138 
Q 1203 3300 1322 3415 
Q 1441 3531 1606 3531 
z
M 1931 775 
L 1403 -891 
L 966 -891 
L 1350 775 
L 1931 775 
z
" transform="scale(0.015625)"/>
     <path id="MicrosoftYaHei-8b1" d="M 300 4466 
L 1631 4466 
Q 1656 4875 1656 5309 
L 2156 5309 
Q 2156 4875 2131 4466 
L 6100 4466 
L 6100 4009 
L 2100 4009 
Q 1847 1119 406 -497 
Q 263 -309 69 -91 
Q 1353 1369 1597 4009 
L 300 4009 
L 300 4466 
z
M 1313 -409 
Q 3513 434 3563 2534 
Q 3581 3034 3581 3791 
L 4075 3791 
Q 4075 3213 4056 2347 
Q 4728 181 6300 -347 
Q 6169 -522 5988 -791 
Q 4516 -247 3878 1550 
Q 3497 -78 1625 -828 
Q 1481 -603 1313 -409 
z
M 4550 1666 
Q 5031 2341 5425 3053 
L 5856 2803 
Q 5394 2047 4931 1422 
L 4550 1666 
z
M 2013 2734 
L 2413 2959 
Q 2731 2422 3131 1659 
L 2706 1409 
Q 2313 2228 2013 2734 
z
" transform="scale(0.015625)"/>
     <path id="MicrosoftYaHei-a29" d="M 56 3253 
Q 1275 4178 1988 5384 
L 2513 5253 
Q 2344 4984 2153 4728 
L 4625 4728 
L 4625 4284 
Q 4275 3875 3894 3466 
L 5581 3466 
L 5581 1184 
L 5081 1184 
L 5081 1403 
L 1325 1403 
L 1325 297 
Q 1325 -128 1719 -128 
L 5094 -128 
Q 5513 -128 5600 134 
Q 5719 516 5769 1091 
Q 5950 1009 6281 897 
Q 6194 309 6100 -9 
Q 5938 -603 5188 -603 
L 1663 -603 
Q 825 -603 825 253 
L 825 3263 
Q 641 3097 444 2934 
Q 275 3091 56 3253 
z
M 5081 3016 
L 3444 3016 
L 3444 1853 
L 5081 1853 
L 5081 3016 
z
M 1325 1853 
L 2956 1853 
L 2956 3016 
L 1325 3016 
L 1325 1853 
z
M 3994 4291 
L 1809 4291 
Q 1456 3863 1041 3466 
L 3284 3466 
Q 3659 3891 3994 4291 
z
" transform="scale(0.015625)"/>
     <path id="MicrosoftYaHei-491" d="M 2263 5003 
L 5750 5003 
L 5750 2647 
L 5275 2647 
L 5275 2884 
L 4225 2884 
L 4225 2041 
L 6288 2041 
L 6288 1616 
L 4588 1616 
Q 5163 659 6338 109 
Q 6144 -159 6025 -353 
Q 4850 359 4225 1572 
L 4225 -847 
L 3769 -847 
L 3769 1597 
Q 3013 234 1875 -478 
Q 1731 -303 1525 -97 
Q 2638 516 3331 1616 
L 1694 1616 
L 1694 2041 
L 3769 2041 
L 3769 2884 
L 2738 2884 
L 2738 2603 
L 2263 2603 
L 2263 5003 
z
M 69 2247 
Q 906 3497 1369 5278 
L 1831 5141 
Q 1575 4316 1275 3597 
L 1275 -816 
L 825 -816 
L 825 2653 
Q 556 2159 263 1734 
Q 175 1997 69 2247 
z
M 5275 4584 
L 2738 4584 
L 2738 3303 
L 5275 3303 
L 5275 4584 
z
" transform="scale(0.015625)"/>
     <path id="MicrosoftYaHei-90a" d="M 825 2284 
L 5594 2284 
L 5594 -791 
L 5125 -791 
L 5125 -528 
L 1294 -528 
L 1294 -803 
L 825 -803 
L 825 2284 
z
M 3131 4553 
L 3131 4978 
L 5931 4978 
Q 5900 4166 5863 3478 
Q 5794 2609 5050 2609 
Q 4700 2609 4281 2628 
Q 4244 2859 4188 3128 
Q 4638 3059 4956 3059 
Q 5356 3059 5400 3553 
Q 5431 4047 5444 4553 
L 4247 4553 
Q 4250 3066 3119 2316 
Q 2969 2503 2756 2672 
Q 3788 3278 3781 4553 
L 3131 4553 
z
M 1869 4103 
L 2244 4341 
Q 2656 3809 3075 3159 
L 2663 2891 
Q 2550 3078 2431 3269 
Q 1706 2975 1038 2678 
Q 844 2578 700 2428 
L 331 2853 
Q 519 3059 519 3378 
L 519 4903 
Q 1613 4984 2744 5272 
L 2919 4809 
Q 2069 4634 981 4491 
L 981 3191 
Q 1563 3403 2188 3644 
Q 2034 3872 1869 4103 
z
M 3444 -103 
L 5125 -103 
L 5125 678 
L 3444 678 
L 3444 -103 
z
M 1294 -103 
L 2975 -103 
L 2975 678 
L 1294 678 
L 1294 -103 
z
M 5125 1859 
L 3444 1859 
L 3444 1097 
L 5125 1097 
L 5125 1859 
z
M 1294 1097 
L 2975 1097 
L 2975 1859 
L 1294 1859 
L 1294 1097 
z
" transform="scale(0.015625)"/>
    </defs>
    <use xlink:href="#MicrosoftYaHei-3c"/>
    <use xlink:href="#MicrosoftYaHei-1a" transform="translate(67.625 0)"/>
    <use xlink:href="#MicrosoftYaHei-3" transform="translate(126.265625 0)"/>
    <use xlink:href="#MicrosoftYaHei-690" transform="translate(155.859375 0)"/>
    <use xlink:href="#MicrosoftYaHei-547" transform="translate(255.859375 0)"/>
    <use xlink:href="#MicrosoftYaHei-be0" transform="translate(355.859375 0)"/>
    <use xlink:href="#MicrosoftYaHei-a9a" transform="translate(455.859375 0)"/>
    <use xlink:href="#MicrosoftYaHei-379" transform="translate(555.859375 0)"/>
    <use xlink:href="#MicrosoftYaHei-65d" transform="translate(655.859375 0)"/>
    <use xlink:href="#MicrosoftYaHei-900" transform="translate(755.859375 0)"/>
    <use xlink:href="#MicrosoftYaHei-bca" transform="translate(855.859375 0)"/>
    <use xlink:href="#MicrosoftYaHei-919" transform="translate(955.859375 0)"/>
    <use xlink:href="#MicrosoftYaHei-78f" transform="translate(1055.859375 0)"/>
    <use xlink:href="#MicrosoftYaHei-59b" transform="translate(1155.859375 0)"/>
    <use xlink:href="#MicrosoftYaHei-98b" transform="translate(1255.859375 0)"/>
    <use xlink:href="#MicrosoftYaHei-37a" transform="translate(1355.859375 0)"/>
    <use xlink:href="#MicrosoftYaHei-8b1" transform="translate(1455.859375 0)"/>
    <use xlink:href="#MicrosoftYaHei-a29" transform="translate(1555.859375 0)"/>
    <use xlink:href="#MicrosoftYaHei-3" transform="translate(1655.859375 0)"/>
    <use xlink:href="#MicrosoftYaHei-3b" transform="translate(1685.453125 0)"/>
    <use xlink:href="#MicrosoftYaHei-3" transform="translate(1760.109375 0)"/>
    <use xlink:href="#MicrosoftYaHei-4b6" transform="translate(1789.703125 0)"/>
    <use xlink:href="#MicrosoftYaHei-b42" transform="translate(1889.703125 0)"/>
    <use xlink:href="#MicrosoftYaHei-491" transform="translate(1989.703125 0)"/>
    <use xlink:href="#MicrosoftYaHei-90a" transform="translate(2089.703125 0)"/>
   </g>
  </g>
 </g>
 <defs>
  <clipPath id="pa0fa011970">
   <rect x="36.548482" y="39.315154" width="272.291598" height="192.52224"/>
  </clipPath>
  <clipPath id="p2776ef9a1b">
   <rect x="348.628322" y="39.315154" width="272.291598" height="192.52224"/>
  </clipPath>
  <clipPath id="p02151ec12a">
   <rect x="660.708162" y="39.315154" width="272.291598" height="192.52224"/>
  </clipPath>
 </defs>
</svg>
